<svg width="104" height="104" viewBox="0 0 104 104" fill="none" xmlns="http://www.w3.org/2000/svg">
<circle cx="52" cy="52" r="48" fill="#2A2E42" stroke="#10121E" stroke-width="8"/>
<path d="M70.0037 59.5478H69.254V42.3563C69.2526 41.7317 69.0039 41.1331 68.5622 40.6915C68.1206 40.2498 67.522 40.0011 66.8974 40H36.9642C36.3397 40.0011 35.741 40.2498 35.2994 40.6915C34.8578 41.1331 34.6091 41.7317 34.6077 42.3563V59.5478H33.858C33.3775 59.5556 32.9939 59.9506 33.0001 60.431V61.5979C33.0001 62.9231 33.9429 63.9997 35.102 63.9997L68.7598 64C69.9188 64 70.8617 62.922 70.8617 61.5981V60.4311C70.8679 59.9506 70.4843 59.5556 70.0038 59.5478L70.0037 59.5478ZM36.0937 42.3563C36.0943 41.875 36.4841 41.4852 36.9654 41.4846H66.8972C67.378 41.486 67.7667 41.8758 67.7673 42.3563V59.5478H55.2031C55.0364 59.5478 54.8742 59.6039 54.7434 59.7072L54.1774 60.1551H49.5776L49.1791 59.7625L49.1788 59.7628C49.0402 59.626 48.8532 59.5494 48.6581 59.5494H36.094L36.0937 42.3563ZM69.3766 61.5976C69.3766 62.1388 69.0509 62.516 68.7593 62.516L35.1015 62.5162C34.8096 62.5162 34.4842 62.1388 34.4842 61.5979L34.4845 61.0321H48.354L48.7524 61.4247C48.8914 61.5615 49.0783 61.6381 49.2731 61.6381H54.4346C54.6013 61.6381 54.7632 61.582 54.8943 61.4789L55.4606 61.0311H69.3763L69.3766 61.5976ZM49.0081 43.3791C49.0081 42.969 49.3405 42.6367 49.7508 42.6367H54.1099C54.3099 42.6318 54.5033 42.7082 54.6463 42.8479C54.7895 42.9874 54.8699 43.1789 54.8699 43.3791C54.8699 43.579 54.7895 43.7706 54.6463 43.9103C54.5033 44.0498 54.3099 44.1261 54.1099 44.1213H49.7508C49.5539 44.1216 49.365 44.0433 49.2255 43.9041C49.0863 43.7649 49.0081 43.5761 49.0081 43.3791ZM55.7894 43.3791C55.7894 42.9696 56.1212 42.6372 56.5307 42.6367H56.5715C56.7714 42.6318 56.9648 42.7082 57.1078 42.8479C57.2508 42.9874 57.3314 43.1789 57.3314 43.3791C57.3314 43.579 57.2508 43.7706 57.1078 43.9103C56.9648 44.0498 56.7714 44.1261 56.5715 44.1213H56.5307C56.1212 44.121 55.7894 43.7886 55.7894 43.3791Z" fill="white"/>
</svg>
