<svg width="104" height="104" viewBox="0 0 104 104" fill="none" xmlns="http://www.w3.org/2000/svg">
<circle cx="52" cy="52" r="48" fill="#2A2E42" stroke="#10121E" stroke-width="8"/>
<path d="M59.0305 32.9009L59.03 32.9H58.9683H44.9896C43.2923 32.9 41.9 34.2923 41.9 35.9896V67.0207C41.9 68.718 43.2923 70.1103 44.9896 70.1103H59.0104C60.7077 70.1103 62.1 68.718 62.1 67.0207V35.9896C62.1 34.3116 60.7398 32.9335 59.0305 32.9009ZM60.9313 67.0205C60.9313 68.1022 60.0498 68.9837 58.9681 68.9837H44.9894C43.9077 68.9837 43.0262 68.1022 43.0262 67.0205L43.0264 36.0315C43.0264 34.9499 43.908 34.0683 44.9896 34.0683H58.9684C60.0501 34.0683 60.9316 34.9499 60.9316 36.0315L60.9313 67.0205Z" fill="white" stroke="white" stroke-width="0.2"/>
<path d="M55.3472 67.6099H48.6103C48.442 67.6099 48.3154 67.7362 48.3154 67.9047C48.3154 68.073 48.4417 68.1996 48.6103 68.1996H55.3472C55.5155 68.1996 55.6421 68.0733 55.6421 67.9047C55.6418 67.7362 55.5155 67.6099 55.3472 67.6099Z" fill="white"/>
<path d="M50.1262 36.3679H53.8315C54.2947 36.3679 54.6316 35.9891 54.6316 35.5679C54.6316 35.1047 54.2527 34.7678 53.8315 34.7678H50.1262C49.6631 34.7678 49.3262 35.1467 49.3262 35.5679C49.3262 35.9891 49.663 36.3679 50.1262 36.3679Z" fill="white"/>
</svg>
