<svg width="104" height="104" viewBox="0 0 104 104" fill="none" xmlns="http://www.w3.org/2000/svg">
<circle cx="52" cy="52" r="48" fill="#2A2E42" stroke="#10121E" stroke-width="8"/>
<path d="M67.1988 63.6504H36.8012C36.0585 63.6493 35.3468 63.354 34.8217 62.8289C34.2967 62.3039 34.0011 61.5919 34 60.8495V43.8009C34.0011 43.0585 34.2966 42.3465 34.8217 41.8215C35.3468 41.2964 36.0585 41.0011 36.8012 41H67.1988C67.9415 41.0011 68.6532 41.2964 69.1783 41.8215C69.7033 42.3465 69.9989 43.0585 70 43.8009V60.8495C69.9989 61.5919 69.7034 62.3039 69.1783 62.8289C68.6532 63.354 67.9415 63.6493 67.1988 63.6504ZM36.8012 42.8948C36.3007 42.8951 35.8951 43.3007 35.8948 43.8009V60.8495C35.8951 61.3497 36.3007 61.7553 36.8012 61.7556H67.1988C67.6993 61.7553 68.1049 61.3497 68.1052 60.8495V43.8009C68.1049 43.3007 67.6993 42.8951 67.1988 42.8948H36.8012Z" fill="white"/>
<path d="M52.0002 53.3429C50.9828 53.3429 49.9877 53.0436 49.1392 52.4818L35.0842 43.1727L36.1304 41.593L50.184 50.9007C50.7226 51.2574 51.3545 51.4477 52.0004 51.4477C52.6465 51.4477 53.2781 51.2574 53.817 50.9007L67.8692 41.593L68.9154 43.1727L54.8618 52.4811C54.0126 53.0427 53.0172 53.3423 51.9993 53.3425L52.0002 53.3429Z" fill="white"/>
</svg>
