<svg width="453" height="1045" viewBox="0 0 453 1045" fill="none" xmlns="http://www.w3.org/2000/svg">
<g opacity="0.5">
<path opacity="0.1" d="M-463.42 763.327C-459.042 769.58 -451.988 773.837 -442.426 776.138C-432.856 778.44 -420.836 778.767 -406.647 777.2C-378.271 774.066 -341.435 763.382 -298.65 746.127C-213.096 711.624 -103.963 650.932 8.44972 572.22C120.863 493.507 215.22 411.714 276.904 343.12C307.751 308.817 330.389 277.856 343.039 252.264C349.365 239.467 353.169 228.06 354.278 218.279C355.386 208.507 353.799 200.423 349.42 194.169C345.042 187.916 337.988 183.659 328.426 181.358C318.856 179.055 306.836 178.729 292.647 180.296C264.271 183.43 227.435 194.114 184.65 211.369C99.0958 245.872 -10.0368 306.564 -122.45 385.276C-234.863 463.988 -329.22 545.782 -390.904 614.376C-421.751 648.679 -444.389 679.64 -457.039 705.232C-463.365 718.029 -467.169 729.436 -468.278 739.217C-469.386 748.989 -467.799 757.073 -463.42 763.327Z" stroke="#D1D454" stroke-width="2"/>
<path opacity="0.1" d="M-437.071 801.637C-432.164 807.486 -424.766 811.111 -415.04 812.57C-405.306 814.03 -393.302 813.308 -379.305 810.51C-351.31 804.914 -315.545 791.061 -274.427 770.143C-192.205 728.315 -88.7774 658.342 16.3475 570.132C121.472 481.921 208.342 392.216 263.813 318.506C291.553 281.645 311.406 248.829 321.778 222.232C326.964 208.932 329.76 197.237 330.012 187.397C330.264 177.566 327.979 169.65 323.071 163.802C318.164 157.954 310.766 154.329 301.04 152.87C291.306 151.41 279.303 152.132 265.305 154.93C237.31 160.525 201.546 174.379 160.427 195.297C78.2055 237.125 -25.2221 307.098 -130.347 395.308C-235.472 483.518 -322.342 573.224 -377.812 646.933C-405.552 683.794 -425.406 716.61 -435.777 743.208C-440.963 756.507 -443.759 768.203 -444.012 778.043C-444.264 787.874 -441.978 795.789 -437.071 801.637Z" stroke="#D1D454" stroke-width="2"/>
<path opacity="0.1" d="M-407.829 837.517C-402.431 842.915 -394.745 845.882 -384.929 846.488C-375.105 847.094 -363.21 845.328 -349.51 841.321C-322.109 833.307 -287.688 816.389 -248.549 791.967C-170.286 743.132 -73.3503 664.411 23.6866 567.374C120.723 470.337 199.444 373.402 248.279 295.138C272.702 256 289.619 221.578 297.633 194.178C301.64 180.477 303.406 168.583 302.8 158.758C302.195 148.942 299.228 141.256 293.829 135.858C288.431 130.46 280.745 127.493 270.929 126.887C261.105 126.281 249.21 128.047 235.51 132.054C208.109 140.068 173.688 156.986 134.549 181.408C56.2857 230.243 -40.6497 308.964 -137.687 406.001C-234.723 503.038 -313.444 599.973 -362.28 678.237C-386.702 717.375 -403.619 751.797 -411.633 779.197C-415.64 792.898 -417.406 804.792 -416.8 814.617C-416.195 824.433 -413.228 832.119 -407.829 837.517Z" stroke="#D1D454" stroke-width="2"/>
<path opacity="0.1" d="M-375.918 870.728C-370.069 875.635 -362.154 877.921 -352.323 877.669C-342.483 877.416 -330.787 874.621 -317.488 869.435C-290.89 859.063 -258.075 839.21 -221.213 811.469C-147.504 755.999 -57.7984 669.129 30.4119 564.004C118.622 458.879 188.595 355.452 230.423 273.23C251.341 232.112 265.195 196.347 270.79 168.352C273.588 154.354 274.31 142.351 272.85 132.617C271.391 122.891 267.766 115.493 261.918 110.586C256.069 105.679 248.154 103.393 238.323 103.645C228.483 103.898 216.788 106.693 203.488 111.879C176.891 122.251 144.075 142.104 107.214 169.845C33.5042 225.315 -56.2015 312.185 -144.412 417.31C-232.622 522.435 -302.595 625.862 -344.423 708.084C-365.341 749.203 -379.194 784.967 -384.79 812.962C-387.588 826.96 -388.31 838.963 -386.85 848.697C-385.391 858.423 -381.766 865.821 -375.918 870.728Z" stroke="#D1D454" stroke-width="2"/>
<path opacity="0.1" d="M-341.579 901.047C-335.325 905.426 -327.241 907.013 -317.469 905.905C-307.688 904.796 -296.281 900.991 -283.484 894.666C-257.892 882.016 -226.931 859.378 -192.628 828.53C-124.034 766.847 -42.2406 672.489 36.4717 560.076C115.184 447.663 175.876 338.531 210.379 252.976C227.634 210.191 238.318 173.355 241.452 144.979C243.019 130.791 242.692 118.771 240.389 109.201C238.089 99.6389 233.832 92.585 227.579 88.2062C221.325 83.8273 213.241 82.2402 203.469 83.3483C193.688 84.4575 182.281 88.2618 169.484 94.5872C143.892 107.237 112.931 129.875 78.6278 160.723C10.0335 222.407 -71.7596 316.764 -150.472 429.177C-229.184 541.59 -289.876 650.722 -324.38 736.277C-341.634 779.062 -352.318 815.898 -355.452 844.274C-357.019 858.462 -356.693 870.483 -354.39 880.053C-352.089 889.614 -347.832 896.668 -341.579 901.047Z" stroke="#D1D454" stroke-width="2"/>
<path opacity="0.1" d="M-305.074 928.272C-298.462 932.089 -290.271 932.965 -280.632 931.01C-270.986 929.053 -259.954 924.268 -247.757 916.852C-223.364 902.019 -194.494 876.769 -163.01 843.049C-100.053 775.622 -26.795 674.495 41.8204 555.649C110.436 436.804 161.385 322.797 188.301 234.561C201.761 190.435 209.193 152.808 209.842 124.267C210.167 109.996 208.794 98.0496 205.666 88.7168C202.54 79.392 197.685 72.736 191.074 68.9188C184.462 65.1017 176.27 64.2251 166.632 66.1808C156.986 68.1381 145.953 72.9221 133.757 80.3388C109.364 95.1715 80.4943 120.422 49.0102 154.141C-13.947 221.569 -87.2051 322.696 -155.82 441.541C-224.436 560.387 -275.386 674.394 -302.301 762.63C-315.761 806.756 -323.193 844.383 -323.842 872.924C-324.167 887.195 -322.794 899.141 -319.666 908.474C-316.54 917.799 -311.685 924.455 -305.074 928.272Z" stroke="#D1D454" stroke-width="2"/>
<path opacity="0.1" d="M-266.681 952.227C-259.762 955.454 -251.525 955.613 -242.094 952.825C-232.655 950.034 -222.081 944.307 -210.577 935.855C-187.57 918.953 -161.011 891.283 -132.586 854.947C-75.7447 782.289 -11.5792 675.162 46.417 550.789C104.413 426.416 145.233 308.402 164.355 218.156C173.918 173.024 178.043 134.893 176.202 106.404C175.282 92.1588 172.873 80.3777 168.943 71.3531C165.017 62.3362 159.6 56.1286 152.681 52.9022C145.762 49.6758 137.525 49.5166 128.094 52.3048C118.655 55.0954 108.081 60.8228 96.5774 69.2742C73.5704 86.1764 47.0112 113.847 18.5857 150.182C-38.2552 222.84 -102.421 329.967 -160.417 454.341C-218.413 578.714 -259.233 696.728 -278.355 786.974C-287.918 832.105 -292.043 870.237 -290.202 898.726C-289.282 912.971 -286.873 924.752 -282.943 933.776C-279.017 942.793 -273.6 949.001 -266.681 952.227Z" stroke="#D1D454" stroke-width="2"/>
<path opacity="0.1" d="M-226.693 972.762C-219.519 975.373 -211.299 974.813 -202.147 971.214C-192.987 967.611 -182.953 960.984 -172.229 951.562C-150.783 932.719 -126.737 902.839 -101.586 864.165C-51.294 786.829 3.29061 674.517 50.2263 545.563C97.162 416.608 127.54 295.486 138.725 203.916C144.318 158.123 145.104 119.777 140.787 91.557C138.628 77.4464 135.202 65.9201 130.501 57.2723C125.803 48.6319 119.866 42.92 112.692 40.309C105.518 37.6979 97.2988 38.2571 88.1466 41.8568C78.9865 45.4594 68.9526 52.0865 58.2291 61.5084C36.7827 80.3515 12.7362 110.231 -12.4143 148.906C-62.7064 226.241 -117.291 338.553 -164.227 467.508C-211.162 596.463 -241.541 717.585 -252.725 809.154C-258.318 854.947 -259.104 893.293 -254.787 921.514C-252.629 935.624 -249.202 947.15 -244.501 955.798C-239.804 964.439 -233.867 970.15 -226.693 972.762Z" stroke="#D1D454" stroke-width="2"/>
<path opacity="0.1" d="M-185.413 989.744C-178.038 991.72 -169.899 990.446 -161.095 986.063C-152.284 981.675 -142.866 974.199 -133.004 963.878C-113.282 943.238 -91.9309 911.376 -70.2469 870.656C-26.8864 789.232 17.7019 672.59 53.2198 540.035C88.7378 407.481 108.444 284.172 111.605 191.976C113.186 145.87 110.626 107.601 103.867 79.8646C100.486 65.9958 96.0683 54.812 90.6313 46.6069C85.1988 38.4087 78.7865 33.2361 71.4124 31.2602C64.0382 29.2843 55.8986 30.5578 47.095 34.9414C38.2837 39.3287 28.8656 46.8051 19.004 57.1257C-0.718439 77.7663 -22.0693 109.628 -43.7534 150.348C-87.1138 231.772 -131.702 348.414 -167.22 480.969C-202.738 613.523 -222.444 736.832 -225.605 829.028C-227.186 875.134 -224.627 913.403 -217.867 941.139C-214.487 955.008 -210.069 966.192 -204.631 974.397C-199.199 982.595 -192.787 987.768 -185.413 989.744Z" stroke="#D1D454" stroke-width="2"/>
<path opacity="0.1" d="M-143.155 1003.08C-135.637 1004.41 -127.639 1002.43 -119.251 997.295C-110.856 992.156 -102.125 983.887 -93.2006 972.746C-75.3521 950.465 -56.8595 916.864 -38.8068 874.41C-2.70798 789.516 31.5446 669.432 55.3745 534.286C79.2044 399.14 88.0887 274.583 83.2022 182.462C80.7585 136.394 74.8735 98.4937 65.722 71.4519C61.146 57.9306 55.77 47.1744 49.6385 39.4743C43.5122 31.7809 36.6734 27.1867 29.1551 25.8611C21.6368 24.5354 13.6392 26.5135 5.25109 31.6476C-3.14421 36.7862 -11.8749 45.055 -20.7995 56.1959C-38.6479 78.4768 -57.1406 112.078 -75.1932 154.533C-111.292 239.426 -145.545 359.511 -169.375 494.656C-193.204 629.802 -202.089 754.36 -197.202 846.48C-194.759 892.549 -188.874 930.449 -179.722 957.49C-175.146 971.012 -169.77 981.768 -163.638 989.468C-157.512 997.161 -150.673 1001.76 -143.155 1003.08Z" stroke="#D1D454" stroke-width="2"/>
<path opacity="0.1" d="M-100.242 1012.7C-92.6367 1013.37 -84.8419 1010.7 -76.9332 1004.85C-69.0177 999.001 -61.0409 990.003 -53.1213 978.127C-37.2827 954.375 -21.789 919.29 -7.50516 875.423C21.0573 787.707 44.7136 665.094 56.674 528.385C68.6345 391.677 66.6291 266.819 53.7324 175.475C47.2829 129.795 38.1171 92.5523 26.6435 66.411C20.9065 53.3399 14.6134 43.0932 7.83415 35.9569C1.06066 28.8266 -6.15247 24.846 -13.7577 24.1806C-21.3629 23.5153 -29.1577 26.1828 -37.0665 32.0286C-44.9819 37.8793 -52.9587 46.8775 -60.8783 58.7539C-76.717 82.5056 -92.2107 117.591 -106.494 161.457C-135.057 249.174 -158.713 371.787 -170.674 508.495C-182.634 645.204 -180.629 770.061 -167.732 861.405C-161.283 907.086 -152.117 944.328 -140.643 970.47C-134.906 983.541 -128.613 993.787 -121.834 1000.92C-115.06 1008.05 -107.847 1012.03 -100.242 1012.7Z" stroke="#D1D454" stroke-width="2"/>
<path opacity="0.1" d="M-56.9997 1018.56C-49.3655 1018.56 -41.8328 1015.22 -34.4637 1008.71C-27.0882 1002.19 -19.926 992.531 -13.0717 980.01C0.636597 954.968 13.0135 918.666 23.4197 873.722C44.2285 783.849 57.1083 659.642 57.1083 522.411C57.1083 385.18 44.2285 260.972 23.4197 171.1C13.0135 126.156 0.636597 89.8536 -13.0717 64.8117C-19.926 52.2904 -27.0882 42.6312 -34.4637 36.1128C-41.8328 29.6001 -49.3655 26.2632 -56.9997 26.2632C-64.634 26.2632 -72.1666 29.6001 -79.5358 36.1128C-86.9112 42.6312 -94.0734 52.2904 -100.928 64.8117C-114.636 89.8536 -127.013 126.156 -137.419 171.1C-158.228 260.972 -171.108 385.18 -171.108 522.411C-171.108 659.642 -158.228 783.849 -137.419 873.722C-127.013 918.666 -114.636 954.968 -100.928 980.01C-94.0734 992.531 -86.9112 1002.19 -79.5358 1008.71C-72.1666 1015.22 -64.634 1018.56 -56.9997 1018.56Z" stroke="#D1D454" stroke-width="2"/>
<path opacity="0.1" d="M-13.7576 1020.64C-6.15236 1019.98 1.06077 1015.99 7.83426 1008.86C14.6135 1001.73 20.9066 991.482 26.6436 978.411C38.1172 952.269 47.283 915.027 53.7325 869.346C66.6292 778.002 68.6346 653.145 56.6741 516.436C44.7137 379.728 21.0575 257.115 -7.50505 169.398C-21.7889 125.532 -37.2826 90.4466 -53.1212 66.6948C-61.0408 54.8185 -69.0176 45.8202 -76.9331 39.9695C-84.8418 34.1238 -92.6366 31.4562 -100.242 32.1216C-107.847 32.787 -115.06 36.7676 -121.834 43.8978C-128.613 51.0342 -134.906 61.2809 -140.643 74.352C-152.117 100.493 -161.282 137.736 -167.732 183.416C-180.629 274.76 -182.634 399.618 -170.674 536.326C-158.713 673.035 -135.057 795.648 -106.494 883.364C-92.2106 927.231 -76.7169 962.316 -60.8782 986.068C-52.9586 997.944 -44.9818 1006.94 -37.0663 1012.79C-29.1576 1018.64 -21.3628 1021.31 -13.7576 1020.64Z" stroke="#D1D454" stroke-width="2"/>
<path opacity="0.1" d="M29.1555 1018.96C36.6738 1017.64 43.5126 1013.04 49.6388 1005.35C55.7703 997.648 61.1464 986.891 65.7223 973.37C74.8739 946.328 80.7589 908.428 83.2026 862.36C88.089 770.239 79.2047 645.682 55.3748 510.536C31.545 375.39 -2.70761 255.306 -38.8065 170.412C-56.8591 127.958 -75.3517 94.3565 -93.2002 72.0755C-102.125 60.9347 -110.855 52.6659 -119.251 47.5273C-127.639 42.3931 -135.636 40.415 -143.155 41.7407C-150.673 43.0664 -157.512 47.6605 -163.638 55.354C-169.77 63.054 -175.146 73.8102 -179.722 87.3316C-188.873 114.373 -194.758 152.273 -197.202 198.342C-202.088 290.462 -193.204 415.019 -169.374 550.165C-145.544 685.311 -111.292 805.396 -75.1928 890.289C-57.1402 932.744 -38.6476 966.345 -20.7991 988.626C-11.8745 999.767 -3.14384 1008.04 5.25146 1013.17C13.6396 1018.31 21.6372 1020.29 29.1555 1018.96Z" stroke="#D1D454" stroke-width="2"/>
<path opacity="0.1" d="M71.4127 1013.56C78.7868 1011.58 85.1992 1006.41 90.6316 998.213C96.0687 990.008 100.487 978.824 103.867 964.956C110.627 937.219 113.186 898.951 111.605 852.845C108.444 760.649 88.7381 637.34 53.2201 504.785C17.7022 372.23 -26.8861 255.588 -70.2465 174.164C-91.9306 133.444 -113.281 101.583 -133.004 80.942C-142.866 70.6213 -152.284 63.1449 -161.095 58.7576C-169.899 54.374 -178.038 53.1005 -185.412 55.0764C-192.786 57.0523 -199.199 62.225 -204.631 70.4231C-210.068 78.6283 -214.486 89.8121 -217.866 103.681C-224.626 131.417 -227.186 169.686 -225.605 215.792C-222.444 307.988 -202.738 431.297 -167.22 563.852C-131.702 696.406 -87.1135 813.048 -43.753 894.473C-22.069 935.192 -0.718127 967.054 19.0043 987.695C28.8659 998.015 38.2841 1005.49 47.0953 1009.88C55.899 1014.26 64.0385 1015.54 71.4127 1013.56Z" stroke="#D1D454" stroke-width="2"/>
<path opacity="0.1" d="M112.693 1004.51C119.867 1001.9 125.804 996.192 130.501 987.551C135.202 978.903 138.629 967.377 140.787 953.267C145.104 925.046 144.318 886.7 138.725 840.907C127.541 749.338 97.1625 628.216 50.2268 499.261C3.29106 370.306 -51.2935 257.994 -101.586 180.659C-126.736 141.984 -150.783 112.104 -172.229 93.2614C-182.953 83.8395 -192.986 77.2124 -202.147 73.6097C-211.299 70.0101 -219.518 69.4509 -226.692 72.0619C-233.866 74.673 -239.803 80.3849 -244.5 89.0253C-249.202 97.6731 -252.628 109.199 -254.787 123.31C-259.104 151.53 -258.318 189.876 -252.725 235.669C-241.54 327.239 -211.162 448.361 -164.226 577.315C-117.291 706.27 -62.7059 818.582 -12.4139 895.918C12.7366 934.592 36.7832 964.472 58.2295 983.315C68.9531 992.737 78.987 999.364 88.1471 1002.97C97.2993 1006.57 105.519 1007.13 112.693 1004.51Z" stroke="#D1D454" stroke-width="2"/>
<path opacity="0.1" d="M152.681 991.919C159.6 988.693 165.017 982.485 168.943 973.468C172.873 964.444 175.282 952.662 176.202 938.417C178.043 909.928 173.918 871.797 164.355 826.666C145.233 736.419 104.413 618.406 46.4169 494.032C-11.5793 369.659 -75.7448 262.532 -132.586 189.874C-161.011 153.539 -187.57 125.868 -210.578 108.966C-222.081 100.515 -232.655 94.7872 -242.094 91.9966C-251.525 89.2084 -259.762 89.3676 -266.681 92.594C-273.6 95.8204 -279.017 102.028 -282.943 111.045C-286.873 120.07 -289.282 131.851 -290.202 146.096C-292.043 174.585 -287.918 212.716 -278.355 257.847C-259.233 348.094 -218.413 466.107 -160.417 590.481C-102.421 714.854 -38.2554 821.981 18.5855 894.639C47.011 930.975 73.5703 958.645 96.5773 975.547C108.081 983.998 118.655 989.726 128.094 992.516C137.525 995.305 145.762 995.145 152.681 991.919Z" stroke="#D1D454" stroke-width="2"/>
<path opacity="0.1" d="M191.074 975.903C197.686 972.086 202.541 965.43 205.666 956.105C208.794 946.772 210.167 934.826 209.843 920.555C209.193 892.014 201.761 854.387 188.301 810.261C161.386 722.024 110.436 608.018 41.8207 489.172C-26.7947 370.327 -100.053 269.2 -163.01 201.772C-194.494 168.053 -223.364 142.802 -247.757 127.97C-259.953 120.553 -270.986 115.769 -280.632 113.812C-290.27 111.856 -298.462 112.733 -305.074 116.55C-311.685 120.367 -316.54 127.023 -319.666 136.348C-322.794 145.681 -324.167 157.627 -323.842 171.898C-323.193 200.439 -315.761 238.066 -302.301 282.192C-275.385 370.428 -224.436 484.435 -155.82 603.28C-87.2049 722.126 -13.9468 823.253 49.0104 890.68C80.4946 924.4 109.364 949.65 133.757 964.483C145.954 971.899 156.986 976.683 166.632 978.641C176.271 980.596 184.463 979.72 191.074 975.903Z" stroke="#D1D454" stroke-width="2"/>
<path opacity="0.1" d="M227.578 956.615C233.832 952.236 238.089 945.182 240.389 935.621C242.692 926.051 243.019 914.03 241.452 899.842C238.317 871.466 227.634 834.63 210.379 791.845C175.876 706.29 115.184 597.158 36.4717 484.745C-42.2407 372.332 -124.034 277.975 -192.628 216.291C-226.931 185.444 -257.892 162.806 -283.485 150.155C-296.281 143.83 -307.688 140.026 -317.469 138.916C-327.241 137.808 -335.325 139.395 -341.579 143.774C-347.832 148.153 -352.089 155.207 -354.39 164.769C-356.693 174.339 -357.019 186.359 -355.452 200.547C-352.318 228.923 -341.634 265.759 -324.38 308.544C-289.876 394.099 -229.184 503.231 -150.472 615.644C-71.7597 728.057 10.0335 822.415 78.6278 884.098C112.931 914.946 143.892 937.584 169.484 950.234C182.281 956.559 193.688 960.364 203.469 961.473C213.241 962.581 221.325 960.994 227.578 956.615Z" stroke="#D1D454" stroke-width="2"/>
<path opacity="0.1" d="M261.918 934.236C267.766 929.329 271.391 921.931 272.85 912.205C274.31 902.471 273.588 890.468 270.79 876.47C265.195 848.475 251.341 812.711 230.423 771.592C188.595 689.37 118.622 585.943 30.4119 480.818C-57.7984 375.693 -147.504 288.823 -221.213 233.353C-258.075 205.613 -290.89 185.759 -317.488 175.387C-330.788 170.201 -342.483 167.406 -352.323 167.153C-362.154 166.901 -370.069 169.187 -375.918 174.094C-381.766 179.001 -385.391 186.399 -386.85 196.125C-388.31 205.859 -387.588 217.862 -384.79 231.86C-379.194 259.855 -365.341 295.62 -344.423 336.738C-302.595 418.96 -232.622 522.388 -144.412 627.512C-56.2015 732.637 33.5041 819.507 107.213 874.978C144.075 902.718 176.891 922.571 203.488 932.943C216.788 938.129 228.483 940.925 238.323 941.177C248.154 941.429 256.069 939.144 261.918 934.236Z" stroke="#D1D454" stroke-width="2"/>
<path opacity="0.1" d="M293.829 908.963C299.228 903.565 302.195 895.879 302.8 886.063C303.406 876.239 301.641 864.344 297.633 850.644C289.619 823.243 272.702 788.822 248.28 749.683C199.444 671.42 120.723 574.484 23.6866 477.447C-73.3502 380.41 -170.286 301.69 -248.549 252.854C-287.688 228.432 -322.109 211.515 -349.51 203.501C-363.21 199.493 -375.105 197.728 -384.929 198.334C-394.745 198.939 -402.431 201.906 -407.829 207.305C-413.228 212.703 -416.195 220.389 -416.8 230.205C-417.406 240.029 -415.64 251.924 -411.633 265.624C-403.619 293.025 -386.702 327.446 -362.279 366.585C-313.444 444.848 -234.723 541.784 -137.687 638.82C-40.6497 735.857 56.2858 814.578 134.549 863.413C173.688 887.835 208.109 904.753 235.51 912.767C249.21 916.774 261.105 918.54 270.929 917.934C280.745 917.328 288.431 914.362 293.829 908.963Z" stroke="#D1D454" stroke-width="2"/>
<path opacity="0.1" d="M323.071 881.021C327.979 875.172 330.264 867.257 330.012 857.426C329.76 847.586 326.964 835.891 321.778 822.591C311.406 795.994 291.553 763.178 263.813 726.317C208.342 652.607 121.472 562.902 16.3475 474.691C-88.7774 386.481 -192.205 316.508 -274.427 274.68C-315.545 253.762 -351.31 239.909 -379.305 234.313C-393.302 231.515 -405.306 230.793 -415.04 232.253C-424.766 233.712 -432.164 237.337 -437.071 243.185C-441.978 249.034 -444.264 256.949 -444.012 266.78C-443.759 276.62 -440.963 288.316 -435.777 301.615C-425.406 328.213 -405.552 361.028 -377.812 397.89C-322.341 471.599 -235.472 561.305 -130.347 649.515C-25.2221 737.725 78.2055 807.698 160.427 849.526C201.546 870.444 237.31 884.298 265.305 889.893C279.303 892.691 291.306 893.413 301.04 891.953C310.766 890.494 318.164 886.869 323.071 881.021Z" stroke="#D1D454" stroke-width="2"/>
<path opacity="0.1" d="M349.42 850.652C353.799 844.398 355.387 836.314 354.278 826.542C353.169 816.761 349.365 805.354 343.04 792.557C330.389 766.965 307.751 736.004 276.904 701.701C215.22 633.107 120.863 551.313 8.4498 472.601C-103.963 393.889 -213.096 333.197 -298.65 298.694C-341.435 281.439 -378.271 270.755 -406.647 267.621C-420.835 266.054 -432.856 266.38 -442.426 268.683C-451.988 270.984 -459.041 275.241 -463.42 281.494C-467.799 287.748 -469.386 295.832 -468.278 305.604C-467.169 315.385 -463.365 326.792 -457.039 339.589C-444.389 365.181 -421.751 396.142 -390.904 430.445C-329.22 499.039 -234.862 580.832 -122.45 659.545C-10.0367 738.257 99.0959 798.949 184.65 833.452C227.435 850.707 264.272 861.391 292.647 864.525C306.836 866.092 318.856 865.765 328.426 863.463C337.988 861.162 345.042 856.905 349.42 850.652Z" stroke="#D1D454" stroke-width="2"/>
<path opacity="0.1" d="M372.677 818.116C376.494 811.504 377.37 803.312 375.415 793.674C373.457 784.028 368.673 772.995 361.257 760.799C346.424 736.406 321.174 707.536 287.454 676.052C220.027 613.095 118.899 539.837 0.0540588 471.221C-118.791 402.606 -232.798 351.656 -321.034 324.741C-365.16 311.281 -402.787 303.849 -431.328 303.199C-445.599 302.875 -457.546 304.248 -466.878 307.376C-476.203 310.502 -482.859 315.357 -486.676 321.968C-490.494 328.58 -491.37 336.771 -489.414 346.41C-487.457 356.056 -482.673 367.088 -475.257 379.285C-460.424 403.678 -435.174 432.548 -401.454 464.032C-334.026 526.989 -232.899 600.247 -114.054 668.862C4.79137 737.478 118.798 788.427 207.035 815.343C251.16 828.803 288.788 836.235 317.328 836.884C331.599 837.209 343.546 835.836 352.879 832.708C362.203 829.582 368.859 824.727 372.677 818.116Z" stroke="#D1D454" stroke-width="2"/>
<path opacity="0.1" d="M392.663 783.693C395.889 776.774 396.048 768.537 393.26 759.105C390.469 749.666 384.742 739.093 376.291 727.589C359.388 704.582 331.718 678.023 295.383 649.597C222.725 592.756 115.598 528.591 -8.77566 470.595C-133.149 412.598 -251.163 371.779 -341.409 352.656C-386.54 343.093 -424.672 338.969 -453.161 340.809C-467.406 341.73 -479.187 344.139 -488.211 348.069C-497.228 351.995 -503.436 357.411 -506.662 364.33C-509.889 371.25 -510.048 379.487 -507.26 388.918C-504.469 398.357 -498.742 408.93 -490.29 420.434C-473.388 443.441 -445.718 470 -409.382 498.426C-336.724 555.267 -229.597 619.432 -105.224 677.429C19.1494 735.425 137.163 776.244 227.409 795.367C272.54 804.93 310.672 809.054 339.161 807.214C353.406 806.293 365.187 803.884 374.212 799.955C383.229 796.028 389.436 790.612 392.663 783.693Z" stroke="#D1D454" stroke-width="2"/>
<path opacity="0.1" d="M409.226 747.673C411.837 740.499 411.278 732.279 407.678 723.127C404.075 713.967 397.448 703.933 388.026 693.21C369.183 671.763 339.304 647.717 300.629 622.566C223.294 572.274 110.982 517.69 -17.9731 470.754C-146.928 423.818 -268.05 393.44 -359.62 382.255C-405.412 376.662 -443.759 375.877 -471.979 380.193C-486.089 382.352 -497.616 385.778 -506.263 390.48C-514.904 395.177 -520.616 401.114 -523.227 408.288C-525.838 415.462 -525.278 423.681 -521.679 432.834C-518.076 441.994 -511.449 452.028 -502.027 462.751C-483.184 484.198 -453.304 508.244 -414.63 533.395C-337.294 583.687 -224.982 638.271 -96.0276 685.207C32.9271 732.143 154.049 762.521 245.619 773.705C291.412 779.299 329.758 780.084 357.978 775.767C372.088 773.609 383.615 770.182 392.263 765.481C400.903 760.784 406.615 754.847 409.226 747.673Z" stroke="#D1D454" stroke-width="2"/>
<path opacity="0.1" d="M422.242 710.362C424.218 702.988 422.944 694.848 418.561 686.044C414.173 677.233 406.697 667.815 396.376 657.954C375.736 638.231 343.874 616.88 303.154 595.196C221.73 551.836 105.088 507.247 -27.4667 471.73C-160.021 436.212 -283.33 416.505 -375.526 413.344C-421.632 411.763 -459.901 414.323 -487.637 421.083C-501.506 424.463 -512.69 428.881 -520.895 434.318C-529.093 439.75 -534.266 446.163 -536.242 453.537C-538.218 460.911 -536.944 469.051 -532.561 477.854C-528.173 486.666 -520.697 496.084 -510.376 505.945C-489.736 525.668 -457.874 547.019 -417.154 568.703C-335.73 612.063 -219.088 656.651 -86.5334 692.169C46.0214 727.687 169.33 747.394 261.526 750.555C307.632 752.135 345.901 749.576 373.637 742.816C387.506 739.436 398.69 735.018 406.895 729.581C415.093 724.148 420.266 717.736 422.242 710.362Z" stroke="#D1D454" stroke-width="2"/>
<path opacity="0.1" d="M431.61 672.074C432.936 664.556 430.958 656.558 425.823 648.17C420.685 639.775 412.416 631.044 401.275 622.12C378.994 604.271 345.393 585.779 302.938 567.726C218.045 531.627 97.9605 497.374 -37.1854 473.545C-172.331 449.715 -296.889 440.83 -389.009 445.717C-435.078 448.161 -472.978 454.046 -500.019 463.197C-513.541 467.773 -524.297 473.149 -531.997 479.281C-539.69 485.407 -544.285 492.246 -545.61 499.764C-546.936 507.282 -544.958 515.28 -539.824 523.668C-534.685 532.063 -526.416 540.794 -515.275 549.719C-492.994 567.567 -459.393 586.06 -416.939 604.112C-332.045 640.211 -211.961 674.464 -76.8148 698.294C58.3312 722.123 182.888 731.008 275.009 726.121C321.077 723.678 358.977 717.793 386.019 708.641C399.54 704.065 410.297 698.689 417.997 692.558C425.69 686.431 430.284 679.593 431.61 672.074Z" stroke="#D1D454" stroke-width="2"/>
<path opacity="0.1" d="M437.259 633.129C437.925 625.524 435.257 617.729 429.412 609.82C423.561 601.905 414.563 593.928 402.686 586.009C378.934 570.17 343.849 554.676 299.983 540.392C212.266 511.83 89.6535 488.174 -47.0551 476.213C-183.764 464.253 -308.621 466.258 -399.965 479.155C-445.645 485.604 -482.888 494.77 -509.03 506.244C-522.101 511.981 -532.347 518.274 -539.484 525.053C-546.614 531.827 -550.595 539.04 -551.26 546.645C-551.925 554.25 -549.258 562.045 -543.412 569.954C-537.561 577.869 -528.563 585.846 -516.687 593.766C-492.935 609.604 -457.85 625.098 -413.983 639.382C-326.266 667.944 -203.654 691.6 -66.9454 703.561C69.7632 715.521 194.621 713.516 285.965 700.619C331.645 694.17 368.888 685.004 395.029 673.53C408.1 667.793 418.347 661.5 425.483 654.721C432.613 647.948 436.594 640.734 437.259 633.129Z" stroke="#D1D454" stroke-width="2"/>
<path opacity="0.1" d="M439.148 593.857C439.148 586.223 435.811 578.69 429.298 571.321C422.78 563.946 413.121 556.783 400.599 549.929C375.558 536.221 339.255 523.844 294.311 513.438C204.439 492.629 80.231 479.749 -56.9998 479.749C-194.231 479.749 -318.438 492.629 -408.311 513.438C-453.255 523.844 -489.557 536.221 -514.599 549.929C-527.12 556.783 -536.78 563.946 -543.298 571.321C-549.811 578.69 -553.147 586.223 -553.147 593.857C-553.147 601.491 -549.811 609.024 -543.298 616.393C-536.78 623.769 -527.12 630.931 -514.599 637.785C-489.557 651.493 -453.255 663.87 -408.311 674.276C-318.438 695.085 -194.231 707.965 -56.9998 707.965C80.231 707.965 204.439 695.085 294.311 674.276C339.255 663.87 375.558 651.493 400.599 637.785C413.121 630.931 422.78 623.769 429.298 616.393C435.811 609.024 439.148 601.491 439.148 593.857Z" stroke="#D1D454" stroke-width="2"/>
</g>
</svg>
