<svg width="164" height="112" viewBox="0 0 164 112" fill="none" xmlns="http://www.w3.org/2000/svg">
<rect width="164" height="112" rx="20" fill="#1A1D2C"/>
<g clip-path="url(#clip0_552_43)">
<path d="M29.187 54.1276L33.8166 49.4473L38.4486 54.13L41.1425 51.4066L33.8166 44L26.4932 51.4041L29.187 54.1276Z" fill="#F3BA2F"/>
<path d="M27.2848 56.0503L24.5911 53.3269L21.8972 56.0504L24.5909 58.7738L27.2848 56.0503Z" fill="#F3BA2F"/>
<path d="M29.187 57.9737L33.8166 62.654L38.4485 57.9714L41.1438 60.6933L41.1425 60.6949L33.8166 68.1013L26.493 60.6973L26.4893 60.6935L29.187 57.9737Z" fill="#F3BA2F"/>
<path d="M43.0427 58.775L45.7366 56.0515L43.0428 53.3281L40.3489 56.0516L43.0427 58.775Z" fill="#F3BA2F"/>
<path d="M36.5491 56.0492H36.5502L33.8167 53.2856L31.7965 55.328H31.7963L31.5644 55.5627L31.0856 56.0468L31.0818 56.0506L31.0856 56.0546L33.8167 58.8157L36.5502 56.0521L36.5515 56.0506L36.5491 56.0492Z" fill="#F3BA2F"/>
<path d="M49.936 49.8398H55.795C57.2491 49.8398 58.3487 50.2171 59.0939 50.9717C59.6707 51.5561 59.9589 52.2804 59.9589 53.1444V53.181C59.9589 53.5461 59.9143 53.8687 59.8245 54.1486C59.7349 54.4288 59.6151 54.681 59.4654 54.9062C59.3161 55.1316 59.1425 55.3294 58.9452 55.4995C58.7477 55.6701 58.5355 55.8163 58.3082 55.9377C59.0391 56.2179 59.6146 56.5981 60.0341 57.0789C60.4534 57.56 60.6633 58.2264 60.6633 59.0782V59.1146C60.6633 59.699 60.5522 60.2101 60.3299 60.6485C60.1075 61.0865 59.7889 61.4518 59.3741 61.744C58.9593 62.0362 58.4605 62.2551 57.8776 62.4013C57.2947 62.5473 56.6487 62.6202 55.9398 62.6202H49.936V49.8398ZM55.2092 55.0067C55.8234 55.0067 56.3111 54.9005 56.672 54.6873C57.0331 54.4743 57.2137 54.1303 57.2137 53.6557V53.6192C57.2137 53.1934 57.057 52.8678 56.7441 52.6425C56.431 52.4173 55.9795 52.3046 55.3898 52.3046H52.6447V55.0067H55.2092V55.0067ZM55.9497 60.1557C56.5637 60.1557 57.045 60.0433 57.3945 59.818C57.7435 59.5928 57.9183 59.2427 57.9183 58.768V58.7316C57.9183 58.3056 57.7556 57.9679 57.4306 57.7181C57.1054 57.469 56.5818 57.3441 55.8594 57.3441H52.6447V60.1558H55.9497V60.1557Z" fill="#F3BA2F"/>
<path d="M64.1528 49.8398H66.9342V62.6206H64.1528V49.8398Z" fill="#F3BA2F"/>
<path d="M71.1467 49.8398H73.7108L79.6345 57.7092V49.8398H82.3796V62.6206H80.0139L73.8916 54.4958V62.6206H71.1467V49.8398Z" fill="#F3BA2F"/>
<path d="M90.7997 49.7488H93.364L98.7821 62.6207H95.8744L94.7185 59.7543H89.3728L88.2171 62.6207H85.3813L90.7997 49.7488ZM93.7253 57.2709L92.0456 53.1265L90.3664 57.2709H93.7253Z" fill="#F3BA2F"/>
<path d="M101.784 49.8398H104.349L110.272 57.7092V49.8398H113.017V62.6206H110.652L104.529 54.4958V62.6206H101.784V49.8398V49.8398Z" fill="#F3BA2F"/>
<path d="M123.027 62.8396C122.099 62.8396 121.239 62.669 120.444 62.3285C119.649 61.988 118.963 61.5221 118.385 60.9317C117.807 60.3414 117.355 59.6445 117.031 58.8412C116.706 58.0377 116.543 57.1795 116.543 56.2666V56.2302C116.543 55.3173 116.706 54.4624 117.031 53.665C117.356 52.8678 117.807 52.1678 118.385 51.5653C118.963 50.9629 119.655 50.4879 120.462 50.1411C121.268 49.7943 122.16 49.6208 123.135 49.6208C123.724 49.6208 124.263 49.6698 124.751 49.7669C125.238 49.8645 125.681 49.9981 126.078 50.1685C126.476 50.3391 126.843 50.546 127.18 50.7893C127.517 51.0329 127.83 51.3006 128.119 51.5928L126.35 53.6558C125.855 53.2056 125.353 52.8523 124.841 52.5969C124.329 52.3414 123.755 52.2135 123.117 52.2135C122.587 52.2135 122.096 52.3171 121.645 52.524C121.194 52.7309 120.805 53.0168 120.48 53.3819C120.155 53.747 119.902 54.1702 119.721 54.6508C119.541 55.1319 119.451 55.646 119.451 56.1937V56.23C119.451 56.7777 119.541 57.2953 119.721 57.7818C119.902 58.2689 120.152 58.6948 120.471 59.0599C120.79 59.425 121.175 59.7143 121.627 59.9273C122.078 60.1405 122.575 60.2468 123.117 60.2468C123.839 60.2468 124.45 60.1129 124.949 59.8451C125.449 59.5777 125.946 59.2124 126.44 58.7496L128.209 60.5572C127.884 60.9103 127.547 61.2269 127.198 61.5065C126.849 61.7867 126.467 62.027 126.051 62.228C125.636 62.4286 125.181 62.5811 124.688 62.6843C124.194 62.7876 123.64 62.8396 123.027 62.8396Z" fill="#F3BA2F"/>
<path d="M131.483 49.8398H141V52.3413H134.228V54.934H140.188V57.4353H134.228V60.1193H141.091V62.6206H131.483V49.8398Z" fill="#F3BA2F"/>
</g>
<defs>
<clipPath id="clip0_552_43">
<rect width="119" height="24.1013" fill="white" transform="translate(22 44)"/>
</clipPath>
</defs>
</svg>
