<svg width="164" height="112" viewBox="0 0 164 112" fill="none" xmlns="http://www.w3.org/2000/svg">
<rect width="164" height="112" rx="20" fill="#1A1D2C"/>
<g clip-path="url(#clip0_552_28)">
<mask id="mask0_552_28" style="mask-type:luminance" maskUnits="userSpaceOnUse" x="22" y="45" width="119" height="22">
<path d="M141 45H22V67H141V45Z" fill="white"/>
</mask>
<g mask="url(#mask0_552_28)">
<path d="M46.0174 51.1557C41.6694 51.1557 38.3049 54.528 38.3049 59.0779C38.3049 63.6277 41.6177 67 46.0174 67C50.4171 67 53.7816 63.5742 53.7816 59.0779C53.7816 54.5815 50.4689 51.1557 46.0174 51.1557ZM46.0692 63.6813C43.5846 63.6813 41.8247 61.7007 41.8247 59.0243C41.8247 56.3479 43.5846 54.3674 46.0692 54.3674C48.5537 54.3674 50.3654 56.3479 50.3654 59.0243C50.3654 61.7007 48.502 63.6813 46.0692 63.6813ZM54.7134 54.5815H56.8356V66.6788H60.3036V51.4234H54.7134V54.5815ZM29.6607 54.4209C31.4724 54.4209 32.9217 55.545 33.4393 57.2579H37.0626C36.3897 53.618 33.4911 51.1022 29.6607 51.1022C25.3645 51.1557 22 54.528 22 59.0779C22 63.6277 25.3127 67 29.7125 67C33.4393 67 36.3897 64.5377 37.0626 60.8443H33.4393C32.9217 62.5572 31.4724 63.7348 29.7125 63.7348C27.2279 63.7348 25.468 61.7543 25.468 59.0779C25.468 56.4015 27.1762 54.4209 29.6607 54.4209ZM119.985 57.5791L117.448 57.2044C116.258 57.0438 115.378 56.6156 115.378 55.6521C115.378 54.5815 116.517 54.0462 118.018 54.0462C119.674 54.0462 120.761 54.7956 120.968 55.9732H124.281C123.919 52.9221 121.641 51.1022 118.121 51.1022C114.498 51.1022 112.065 53.0292 112.065 55.7591C112.065 58.3285 113.618 59.8808 116.827 60.309L119.364 60.6837C120.606 60.8443 121.279 61.3796 121.279 62.2895C121.279 63.5207 120.088 64.0024 118.432 64.0024C116.413 64.0024 115.274 63.146 115.067 61.8613H111.703C112.013 64.8589 114.291 66.9465 118.38 66.9465C122.107 66.9465 124.643 65.18 124.643 62.129C124.643 59.4526 122.832 58.0608 119.985 57.5791ZM58.5955 45.1606C57.3532 45.1606 56.3697 46.1241 56.3697 47.4088C56.3697 48.6934 57.3014 49.6569 58.5955 49.6569C59.8378 49.6569 60.8212 48.6934 60.8212 47.4088C60.8212 46.1241 59.8378 45.1606 58.5955 45.1606ZM109.011 56.6691C109.011 53.3504 107.044 51.1557 102.955 51.1557C99.0731 51.1557 96.8991 53.1898 96.4332 56.2944H99.8495C100.005 55.0633 100.937 54.0998 102.903 54.0998C104.663 54.0998 105.492 54.9027 105.492 55.8662C105.492 57.1509 103.939 57.472 101.972 57.6861C99.3319 58.0073 96.0709 58.9173 96.0709 62.4501C96.0709 65.18 98.0378 66.9465 101.195 66.9465C103.68 66.9465 105.181 65.8759 105.957 64.2165C106.061 65.7153 107.148 66.6788 108.701 66.6788H110.719V63.5207H109.011V56.6691ZM105.595 60.4696C105.595 62.5036 103.887 64.0024 101.765 64.0024C100.471 64.0024 99.3837 63.4672 99.3837 62.236C99.3837 60.7372 101.144 60.309 102.748 60.1484C104.301 59.9878 105.129 59.6667 105.595 58.9708V60.4696ZM87.375 51.1557C85.4598 51.1557 83.8552 51.9586 82.7164 53.3504V45H79.3001V66.6788H82.6646V64.6983C83.8034 66.1436 85.4598 67 87.375 67C91.5159 67 94.6216 63.6277 94.6216 59.0779C94.6216 54.528 91.4641 51.1557 87.375 51.1557ZM86.8573 63.6813C84.3728 63.6813 82.6129 61.7007 82.6129 59.0243C82.6129 56.3479 84.4245 54.3674 86.9091 54.3674C89.3937 54.3674 91.1536 56.3479 91.1536 59.0243C91.1536 61.7543 89.3419 63.6813 86.8573 63.6813ZM71.07 51.1557C68.8443 51.1557 67.395 52.1192 66.515 53.4039V51.4234H63.0987V66.6788H66.515V58.382C66.515 56.0268 67.9643 54.4209 70.0866 54.4209C72.0535 54.4209 73.2958 55.8662 73.2958 57.9538V66.6788H76.7121V57.6861C76.7121 53.8321 74.7969 51.1557 71.07 51.1557ZM141 58.5961C141 54.2068 137.894 51.1557 133.753 51.1557C129.354 51.1557 126.093 54.5815 126.093 59.0779C126.093 63.8418 129.561 67 133.805 67C137.377 67 140.172 64.8054 140.896 61.7007H137.325C136.807 63.0389 135.565 63.8418 133.857 63.8418C131.631 63.8418 129.975 62.4501 129.612 59.9343H141V58.5961ZM129.819 57.4185C130.389 55.2774 131.89 54.2603 133.702 54.2603C135.669 54.2603 137.118 55.3844 137.48 57.4185H129.819Z" fill="#0052FF"/>
</g>
</g>
<defs>
<clipPath id="clip0_552_28">
<rect width="119" height="22" fill="white" transform="translate(22 45)"/>
</clipPath>
</defs>
</svg>
