<svg width="164" height="112" viewBox="0 0 164 112" fill="none" xmlns="http://www.w3.org/2000/svg">
<rect width="164" height="112" rx="20" fill="#1A1D2C"/>
<g clip-path="url(#clip0_552_101)">
<path d="M22.7265 42L11 48.75V62.25L22.7265 69L34.453 62.25V48.75L22.7265 42ZM22.7265 42L11 48.75V62.25L22.7265 69L34.453 62.25V48.75L22.7265 42Z" fill="white"/>
<path d="M27.356 63.7266H25.6875L23.69 61.8984V60.9609L25.758 58.9922V55.875L28.4605 54.1172L31.539 56.4375L27.356 63.7266ZM20.447 58.8047L20.7525 55.875L19.742 53.25H25.711L24.724 55.875L25.006 58.8047H22.703H20.447ZM21.81 61.8984L19.8125 63.75H18.1205L13.914 56.4375L17.016 54.1406L19.742 55.875V58.9922L21.81 60.9609V61.8984ZM18.097 47.8359H27.3325L28.437 52.5234H17.016L18.097 47.8359ZM22.7265 42L11 48.75V62.25L22.7265 69L34.453 62.25V48.75L22.7265 42Z" fill="#03316C"/>
<path d="M47.6129 61.7578C44.5109 61.7578 42.2314 59.3438 42.2314 56.3672C42.2314 53.3906 44.5344 50.9062 47.6364 50.9062C49.6104 50.9062 50.8324 51.6328 51.7959 52.6875L50.3154 54.2813C49.5869 53.5078 48.8114 52.9922 47.6129 52.9922C45.8739 52.9922 44.6049 54.4922 44.6049 56.3203C44.6049 58.1953 45.8974 59.6953 47.7304 59.6953C48.8584 59.6953 49.6809 59.1563 50.4329 58.4063L51.8664 59.8359C50.8324 60.9375 49.6339 61.7578 47.6129 61.7578Z" fill="#002E73"/>
<path d="M56.4021 61.7579H54.0051V50.9297H56.4021V53.461C57.0601 51.9141 58.2586 50.836 60.0916 50.9297V53.461H59.9506C57.8591 53.461 56.4021 54.8204 56.4021 57.586V61.7579Z" fill="#002E73"/>
<path d="M72.6169 50.8828L67.3294 64.6641H64.9089L66.0604 61.7578L61.5249 50.8828H64.0864L67.1649 58.9219L70.1259 50.8828H72.6169Z" fill="#002E73"/>
<path d="M79.6669 52.9687C78.0454 52.9687 76.6354 54.2812 76.6354 56.3203C76.6354 58.3594 78.0689 59.6719 79.6669 59.6719C81.3119 59.6719 82.6514 58.3828 82.6514 56.3203C82.6514 54.2578 81.2884 52.9687 79.6669 52.9687ZM80.2074 61.7344C78.4919 61.7344 77.4109 60.8672 76.6824 59.9062V64.6641H74.2854V50.8828H76.6824V52.8281C77.4579 51.75 78.5389 50.8828 80.2074 50.8828C82.6749 50.8828 85.0719 52.8281 85.0719 56.2969C85.0719 59.7656 82.6984 61.7344 80.2074 61.7344Z" fill="#002E73"/>
<path d="M90.3126 53.1562V58.2656C90.3126 59.1797 90.7826 59.5547 91.6051 59.5547H92.5451V61.6875H90.9001C89.1611 61.6875 87.9156 60.9141 87.9156 58.6406V53.1562H86.5996V51.1172H87.9156V48.2578H90.3126V51.1172H92.5451V53.1562H90.3126Z" fill="#002E73"/>
<path d="M100.088 52.9688C98.1614 52.9688 96.9394 54.4688 96.9394 56.2969C96.9394 58.1484 98.2554 59.6719 100.112 59.6719C102.039 59.6719 103.261 58.1719 103.261 56.3438C103.308 54.4922 101.968 52.9688 100.088 52.9688ZM100.088 61.7578C96.9159 61.7578 94.5659 59.3438 94.5659 56.3672C94.5659 53.3672 96.9394 50.9062 100.135 50.9062C103.331 50.9062 105.681 53.3203 105.681 56.3203C105.681 59.2734 103.331 61.7578 100.088 61.7578Z" fill="#002E73"/>
<path d="M128.547 52.9688C126.62 52.9688 125.398 54.4688 125.398 56.2969C125.398 58.1484 126.714 59.6719 128.57 59.6719C130.497 59.6719 131.719 58.1719 131.719 56.3438C131.743 54.4922 130.427 52.9688 128.547 52.9688ZM128.547 61.7578C125.374 61.7578 123.024 59.3438 123.024 56.3672C123.024 53.3672 125.398 50.9062 128.594 50.9062C131.79 50.9062 134.14 53.3203 134.14 56.3203C134.14 59.2734 131.766 61.7578 128.547 61.7578Z" fill="#002E73"/>
<path d="M148.334 50.8828C150.614 50.8828 152 52.3125 152 54.8672V61.7344H149.603V55.5937C149.603 53.9297 148.828 53.0625 147.488 53.0625C146.196 53.0625 145.256 53.9766 145.256 55.6406V61.7578H142.859V55.5937C142.859 53.9766 142.06 53.0625 140.744 53.0625C139.428 53.0625 138.511 54.0469 138.511 55.6641V61.7578H136.114V50.9062H138.511V52.6875C139.193 51.7734 140.086 50.9062 141.684 50.9062C143.188 50.9062 144.222 51.6328 144.786 52.7344C145.655 51.6094 146.76 50.8828 148.334 50.8828Z" fill="#002E73"/>
<path d="M107.773 59.4375L108.807 58.8516H108.948L110.005 59.4375L110.076 59.5547V60.7734L110.005 60.8906L108.948 61.4766H108.807L107.773 60.8906L107.702 60.7734V59.5547L107.773 59.4375Z" fill="#002E73"/>
<path d="M117.338 61.7344C114.236 61.6641 112.003 59.2031 112.05 56.2266C112.097 53.25 114.447 50.8125 117.573 50.8828C119.547 50.9297 120.769 51.6797 121.709 52.7578L120.205 54.3281C119.5 53.5547 118.724 52.9922 117.526 52.9688C115.787 52.9453 114.494 54.3985 114.471 56.25C114.424 58.125 115.693 59.6485 117.526 59.6719C118.654 59.6953 119.5 59.1797 120.252 58.4297L121.662 59.8828C120.604 60.9844 119.382 61.7813 117.338 61.7344Z" fill="#002E73"/>
</g>
<defs>
<clipPath id="clip0_552_101">
<rect width="141" height="27" fill="white" transform="translate(11 42)"/>
</clipPath>
</defs>
</svg>
