<svg width="164" height="112" viewBox="0 0 164 112" fill="none" xmlns="http://www.w3.org/2000/svg">
<rect width="164" height="112" rx="20" fill="#1A1D2C"/>
<path fill-rule="evenodd" clip-rule="evenodd" d="M64.7749 38.204C60.4813 40.3748 58.2693 43.1568 58.2693 45.8764C58.2693 48.596 60.4813 51.3779 64.7749 53.5488C68.9969 55.6835 74.9086 57.0368 81.5001 57.0368C88.0916 57.0368 94.0033 55.6835 98.2253 53.5488C102.519 51.3779 104.731 48.596 104.731 45.8764C104.731 43.1568 102.519 40.3748 98.2253 38.204C94.0033 36.0693 88.0916 34.716 81.5001 34.716C74.9086 34.716 68.9969 36.0693 64.7749 38.204ZM63.7751 36.1305C68.3697 33.8074 74.638 32.4036 81.5001 32.4036C88.3623 32.4036 94.6305 33.8074 99.2251 36.1305C103.748 38.4174 106.989 41.7937 106.989 45.8764C106.989 49.959 103.748 53.3354 99.2251 55.6223C94.6305 57.9453 88.3623 59.3492 81.5001 59.3492C74.638 59.3492 68.3697 57.9453 63.7751 55.6223C59.2521 53.3354 56.011 49.959 56.011 45.8764C56.011 41.7937 59.2521 38.4174 63.7751 36.1305Z" fill="#31A6E0"/>
<path fill-rule="evenodd" clip-rule="evenodd" d="M79.392 27.5105C75.3499 24.8771 71.8592 24.3545 69.5569 25.7181C67.2546 27.0817 66.0353 30.394 66.4019 35.2043C66.7624 39.9343 68.652 45.7373 72.0361 51.451C75.4202 57.1647 79.601 61.6107 83.5757 64.2001C87.6178 66.8335 91.1085 67.3561 93.4107 65.9925C95.713 64.6289 96.9323 61.3166 96.5657 56.5064C96.2052 51.7763 94.3157 45.9733 90.9315 40.2596C87.5474 34.5459 83.3666 30.0999 79.392 27.5105ZM80.6339 25.6042C84.9594 28.4222 89.366 33.1518 92.8891 39.1002C96.4122 45.0485 98.4419 51.1859 98.8343 56.3334C99.2205 61.4007 98.0263 65.9031 94.5702 67.9501C91.1141 69.9971 86.5918 68.8805 82.3337 66.1064C78.0082 63.2884 73.6016 58.5588 70.0785 52.6105C66.5554 46.6621 64.5257 40.5247 64.1333 35.3772C63.7471 30.3099 64.9413 25.8075 68.3974 23.7605C71.8536 21.7135 76.3758 22.8301 80.6339 25.6042Z" fill="#31A6E0"/>
<path fill-rule="evenodd" clip-rule="evenodd" d="M96.5602 35.1989C96.9269 30.3886 95.7075 27.0763 93.4053 25.7127C91.103 24.3491 87.6123 24.8717 83.5702 27.5051C79.5955 30.0945 75.4147 34.5405 72.0306 40.2542C68.6465 45.9679 66.757 51.7709 66.3964 56.5009C66.0298 61.3112 67.2491 64.6235 69.5514 65.9871C71.8537 67.3507 75.3444 66.8281 79.3865 64.1947C83.3611 61.6053 87.5419 57.1593 90.926 51.4456C94.3102 45.7319 96.1997 39.9289 96.5602 35.1989ZM98.8288 35.3718C98.4365 40.5193 96.4067 46.6567 92.8836 52.6051C89.3605 58.5534 84.9539 63.283 80.6284 66.101C76.3703 68.8751 71.8481 69.9917 68.392 67.9447C64.9358 65.8977 63.7416 61.3953 64.1278 56.328C64.5202 51.1805 66.5499 45.0431 70.073 39.0947C73.5961 33.1464 78.0027 28.4168 82.3282 25.5988C86.5863 22.8247 91.1086 21.7081 94.5647 23.7551C98.0208 25.8021 99.215 30.3045 98.8288 35.3718Z" fill="#31A6E0"/>
<path d="M84.3928 49.6524H82.2282V51.3157H81.3179V49.6749C81.0751 49.6749 80.8526 49.6749 80.5896 49.6749V51.3382H79.6793V49.6749C79.477 49.6749 79.2545 49.6749 79.0319 49.6749H77.8586L78.0407 48.4836C78.0407 48.4836 78.7083 48.5061 78.7083 48.4836C78.9713 48.4836 79.032 48.2813 79.0522 48.1465V43.6061C79.0117 43.4038 78.8903 43.1565 78.5262 43.1565C78.5464 43.134 77.8586 43.1565 77.8586 43.1565V42.0776H79.1129C79.2949 42.0776 79.4972 42.0776 79.6995 42.0776V40.4143H80.6098V42.0327C80.8526 42.0327 81.0954 42.0327 81.3381 42.0327V40.4143H82.2484V42.0776H84.413C84.413 42.0776 84.413 43.2015 84.413 43.1565H80.6503V45.2469H83.705V46.2584H80.6503V48.4387H84.2309L84.3928 49.6524Z" fill="#103342"/>
<path d="M55.2826 91.3292H49.5527C49.5965 91.8358 49.8371 92.258 50.2744 92.5746C50.7337 92.8913 51.2367 93.039 51.8053 93.039C52.7239 93.039 53.4237 92.7646 53.9048 92.1947L54.7796 93.1235C53.9923 93.9045 52.9644 94.3056 51.696 94.3056C50.6681 94.3056 49.7933 93.9678 49.0716 93.3134C48.3499 92.6591 48 91.7725 48 90.6537C48 89.5349 48.3718 88.6695 49.0935 88.0151C49.8371 87.3607 50.69 87.0229 51.696 87.0229C52.6801 87.0229 53.533 87.3185 54.2329 87.8884C54.9327 88.4584 55.2826 89.2605 55.2826 90.2737V91.3292ZM49.5527 90.1682H53.7517C53.7517 89.5771 53.5549 89.1127 53.1831 88.7961C52.7895 88.4795 52.3302 88.3106 51.7616 88.3106C51.193 88.3106 50.69 88.4795 50.2526 88.8172C49.7714 89.1339 49.5527 89.5982 49.5527 90.1682Z" fill="#103342"/>
<path d="M58.9238 94.3055H57.4673V84.1099H58.9238V94.3055Z" fill="#103342"/>
<path d="M69.1195 91.3292H63.3897C63.4334 91.8358 63.674 92.258 64.1114 92.5746C64.5706 92.8913 65.0736 93.039 65.6422 93.039C66.5608 93.039 67.2606 92.7646 67.7417 92.1947L68.6165 93.1235C67.8292 93.9045 66.8013 94.3056 65.5329 94.3056C64.505 94.3056 63.6302 93.9678 62.9085 93.3134C62.1868 92.6591 61.8369 91.7725 61.8369 90.6537C61.8369 89.5349 62.2087 88.6695 62.9304 88.0151C63.674 87.3607 64.5269 87.0229 65.5329 87.0229C66.517 87.0229 67.3699 87.3185 68.0698 87.8884C68.7696 88.4584 69.1195 89.2605 69.1195 90.2737V91.3292ZM63.3897 90.1682H67.5886C67.5886 89.5771 67.3918 89.1127 67.02 88.7961C66.6264 88.4795 66.1671 88.3106 65.5985 88.3106C65.0299 88.3106 64.5269 88.4795 64.0895 88.8172C63.6302 89.1339 63.3897 89.5982 63.3897 90.1682Z" fill="#103342"/>
<path d="M74.8757 94.3056C73.8884 94.3056 73.0481 93.9668 72.3548 93.3106C71.6406 92.6331 71.3044 91.7651 71.3044 90.6854C71.3044 89.6057 71.6616 88.7166 72.3968 88.0391C73.1321 87.3617 74.0354 87.0229 75.0858 87.0229C76.1362 87.0229 77.0395 87.3828 77.7748 88.1238L76.9135 89.2035C76.3042 88.6742 75.695 88.399 75.0858 88.399C74.4766 88.399 73.9304 88.6107 73.4892 89.013C73.0271 89.4152 72.817 89.9656 72.817 90.6007C72.817 91.2359 73.0481 91.8075 73.4892 92.252C73.9304 92.6966 74.4976 92.9295 75.1488 92.9295C75.8001 92.9295 76.4303 92.6331 76.9975 92.0192L77.8588 92.9718C76.9765 93.8822 75.9891 94.3056 74.8757 94.3056Z" fill="#103342"/>
<path d="M82.5158 88.2711V91.896C82.5158 92.2372 82.6033 92.5144 82.8002 92.7063C82.9753 92.8982 83.2378 93.0048 83.566 93.0048C83.8942 93.0048 84.2224 92.8556 84.5068 92.5357L85.1413 93.6019C84.5943 94.071 84.0036 94.3055 83.3472 94.3055C82.6908 94.3055 82.122 94.0923 81.6625 93.6445C81.2031 93.1967 80.9624 92.5997 80.9624 91.8534V88.2711H80.0435V87.077H80.9624V84.8381H82.4939V87.077H84.4193V88.2925H82.5158V88.2711Z" fill="#103342"/>
<path d="M90.8696 88.5652C90.0152 88.5652 89.3805 88.8008 88.9411 89.2934C88.5017 89.7861 88.3064 90.4286 88.3064 91.2426V94.3056H86.5977V87.1515H88.3064V88.5866C88.5749 88.1368 88.9655 87.7726 89.4293 87.4728C89.8931 87.1943 90.4058 87.0444 90.9428 87.0229L90.9672 88.5437C90.9428 88.5651 90.9184 88.5652 90.8696 88.5652Z" fill="#103342"/>
<path d="M98.2122 90.9113V87.0229H99.7067V94.1981H98.2122V92.8877C97.9774 93.3388 97.6358 93.6826 97.2088 93.9189C96.7818 94.1767 96.3334 94.3056 95.8424 94.3056C95.0311 94.3056 94.3906 94.0478 93.8996 93.5537C93.4085 93.0596 93.1523 92.3506 93.1523 91.4054V87.0229H94.6468V90.9758C94.6468 92.3077 95.2019 92.9522 96.2907 92.9522C96.8031 92.9522 97.2515 92.7803 97.6571 92.4366C98.0201 92.0929 98.2122 91.5773 98.2122 90.9113Z" fill="#103342"/>
<path d="M104.224 90.4072V94.2841H102.62V87.13H104.224V88.4366C104.454 87.9868 104.798 87.6441 105.279 87.4085C105.738 87.1515 106.242 87.0229 106.792 87.0229C108.007 87.0229 108.833 87.4942 109.268 88.4152C110.025 87.4728 110.965 87.0229 112.111 87.0229C112.983 87.0229 113.67 87.28 114.198 87.7726C114.725 88.2653 115 88.9721 115 89.9146V94.3056H113.395V90.3644C113.395 89.0364 112.799 88.3938 111.63 88.3938C111.08 88.3938 110.598 88.5652 110.185 88.8864C109.773 89.2077 109.566 89.7004 109.543 90.3215V94.3056H107.939V90.3644C107.939 89.679 107.801 89.1863 107.549 88.865C107.297 88.5437 106.884 88.3938 106.334 88.3938C105.784 88.3938 105.302 88.5651 104.866 88.9079C104.431 89.2506 104.224 89.7432 104.224 90.4072Z" fill="#103342"/>
</svg>
