<svg width="164" height="112" viewBox="0 0 164 112" fill="none" xmlns="http://www.w3.org/2000/svg">
<rect width="164" height="112" rx="20" fill="#1A1D2C"/>
<path d="M33.1122 47.0261C35.1759 46.8872 37.2793 47.3039 39.1247 48.2366C41.8631 49.5859 44.0459 52.0068 45.0579 54.8642C45.5143 56.1342 45.7524 57.4637 45.7524 58.813V63.7937C45.7524 63.9921 45.7524 64.2104 45.7127 64.4088C45.5936 64.9049 45.2365 65.3613 44.7602 65.5796C44.4229 65.7383 44.0459 65.7582 43.7085 65.6986C42.9545 65.5597 42.3592 64.8454 42.3592 64.0715C42.3592 62.5237 42.3592 60.9759 42.3592 59.4282C42.379 58.9916 42.379 58.5154 42.1409 58.1383C41.7639 57.424 40.8114 57.0866 40.0772 57.3843C39.4422 57.6026 38.9858 58.2574 38.966 58.9321C38.966 60.4997 38.966 62.0673 38.966 63.6349C38.966 63.9326 38.9858 64.2302 38.8866 64.508C38.7279 65.0636 38.2715 65.5002 37.7159 65.6589C36.9817 65.8574 36.1482 65.5399 35.7911 64.8652C35.5331 64.4683 35.5529 63.9723 35.5728 63.5159C35.5728 61.9482 35.5728 60.4005 35.5728 58.8329C35.5529 58.0391 34.8981 57.3248 34.1242 57.2256C33.6083 57.1462 33.0725 57.3248 32.6955 57.6819C32.3582 57.9994 32.1796 58.4558 32.1796 58.9122V63.4563C32.1796 63.8334 32.2193 64.2302 32.0804 64.5874C31.8621 65.2422 31.2073 65.7185 30.5128 65.6986C29.7984 65.7383 29.1039 65.2422 28.8856 64.5874C28.7666 64.2501 28.7864 63.9127 28.7864 63.5556C28.7864 61.9879 28.7864 60.4203 28.7864 58.8527C28.7864 58.0788 28.1713 57.3645 27.4172 57.2256C26.7227 57.0867 25.9687 57.424 25.6115 58.059C25.4726 58.3169 25.3932 58.6146 25.3932 58.9122V64.0119C25.3932 64.508 25.1749 65.0041 24.7979 65.3216C24.2224 65.8177 23.2898 65.8574 22.6945 65.401C22.258 65.1033 22 64.5874 22 64.0516V58.8924C22 56.9477 22.4961 55.0031 23.4287 53.2767C24.1828 51.8679 25.2345 50.6177 26.4846 49.6256C28.33 48.0778 30.6913 47.165 33.1122 47.0261Z" fill="#5741D9"/>
<path d="M79.4859 52.9989H76.9063C77.0055 51.1932 77.3825 49.5661 79.0295 48.5342C80.6765 47.5222 82.4822 47.2841 84.3673 47.4428C85.3793 47.5222 86.3914 47.7405 87.324 48.177C88.971 48.9311 89.7845 50.2209 89.7845 52.0266C89.7845 55.2214 89.7845 58.4162 89.7845 61.6109C89.7845 62.7817 90.0227 62.9999 91.1934 62.8809C91.3125 62.861 91.4514 62.8412 91.5704 62.8214C91.5903 62.8809 91.5903 62.9404 91.5903 62.9801V64.9247C90.6577 65.2422 89.7052 65.3415 88.7725 65.0835C88.078 64.8851 87.6415 64.389 87.4034 63.7341C87.2843 63.3968 87.2049 63.0396 87.1057 62.6626C87.0065 62.7817 86.9271 62.8809 86.8279 62.9801C84.784 65.0438 82.3632 65.9169 79.5057 65.1827C77.4817 64.6668 76.0927 62.8214 76.0332 60.718C76.0133 60.0433 76.0729 59.3686 76.2316 58.7138C76.6086 57.2057 77.6802 56.2929 79.0295 55.6778C79.982 55.2412 81.0138 55.1222 82.0457 54.9833C83.2561 54.8245 84.4467 54.6856 85.6571 54.507C86.4707 54.388 86.8874 53.9514 87.0065 53.1378C87.2645 51.4909 86.5303 50.3995 84.9428 50.0026C83.9903 49.7645 83.018 49.7248 82.0457 49.9034C80.617 50.1614 79.8232 50.9749 79.5454 52.3838C79.5653 52.5822 79.5256 52.7807 79.4859 52.9989ZM87.0859 56.1739C85.8953 56.8088 84.7444 56.9676 83.5736 57.1462C82.6013 57.3049 81.6091 57.4438 80.6566 57.7415C79.4065 58.1582 78.8311 59.19 78.9501 60.5791C79.0493 61.73 79.8232 62.6626 81.0734 62.861C82.9982 63.1785 84.7047 62.6428 86.054 61.2141C86.4509 60.7973 86.7684 60.202 86.8477 59.6464C87.0263 58.5352 87.0065 57.4041 87.0859 56.1739ZM123.855 59.5075C123.796 59.7853 123.756 60.0235 123.697 60.2417C122.585 63.6349 120.323 65.0835 117.585 65.401C112.842 65.9169 110.124 62.8214 109.429 59.5274C108.874 56.9081 108.953 54.3086 110.104 51.848C111.195 49.5264 112.942 47.9984 115.541 47.542C118.656 46.9864 123.062 48.5342 123.796 53.3958C123.994 54.6459 124.034 55.9357 124.153 57.2454H112.088C112.188 59.0313 112.465 60.6981 113.775 61.9879C114.311 62.5237 115.005 62.7817 115.759 62.9206C118.2 63.3571 120.224 62.1864 121.018 59.825C121.097 59.5671 121.216 59.4877 121.474 59.5075C122.248 59.5075 123.022 59.5075 123.855 59.5075ZM112.188 54.9436H121.216C121.117 53.8919 120.938 52.9196 120.442 52.0068C119.966 51.1337 119.272 50.4987 118.319 50.1812C115.204 49.1097 111.989 51.5901 112.188 54.9436ZM130.344 64.8255H127.606V47.8H130.205V50.1812C130.404 49.9629 130.523 49.824 130.642 49.6851C132.507 47.5619 134.849 47.0063 137.508 47.6611C139.353 48.1175 140.385 49.4272 140.742 51.2527C140.881 52.0068 140.98 52.7807 140.98 53.5347C141 57.1859 141 60.837 141 64.4882C141 64.5874 140.98 64.6866 140.98 64.8057H138.182V64.3493C138.182 60.9362 138.202 57.5232 138.162 54.1102C138.162 53.3561 138.043 52.5822 137.825 51.848C137.468 50.6574 136.515 50.0225 135.265 49.9629C132.983 49.8836 131.178 51.094 130.622 53.118C130.424 53.8522 130.364 54.6261 130.364 55.4C130.344 58.3963 130.344 61.3728 130.344 64.3294V64.8255ZM94.2493 47.8H96.8884V55.023C97.0472 54.8642 97.1464 54.7848 97.2456 54.6856C99.4085 52.483 101.571 50.2606 103.734 48.058C103.913 47.8595 104.092 47.7802 104.369 47.7802C105.381 47.8 106.413 47.7802 107.524 47.7802C107.366 47.9389 107.286 48.0381 107.187 48.1373C105.282 50.0423 103.397 51.9671 101.472 53.8522C101.254 54.0705 101.254 54.2094 101.393 54.4475C103.476 57.7613 105.54 61.0752 107.604 64.389C107.683 64.508 107.743 64.6271 107.842 64.8057C107.703 64.8255 107.604 64.8255 107.485 64.8255C106.532 64.8255 105.6 64.8255 104.647 64.8255C104.389 64.8255 104.27 64.7263 104.131 64.5279C102.544 61.8689 100.956 59.2099 99.3688 56.531C99.2895 56.412 99.2299 56.2929 99.1307 56.154C98.3965 56.8882 97.6822 57.5827 96.9678 58.3169C96.8686 58.4162 96.8487 58.5947 96.8487 58.7336C96.8487 60.5989 96.8487 62.4642 96.8487 64.3294V64.8057C96.3328 64.8057 95.8169 64.8057 95.3208 64.8057C94.9636 64.8057 94.4676 64.9049 94.2691 64.7065C94.0905 64.5477 94.1897 64.0318 94.1897 63.6746V48.2564C94.2493 48.1572 94.2493 47.9984 94.2493 47.8ZM63.7899 47.7802C61.6468 49.9034 59.5633 51.9869 57.4599 54.0705C59.722 57.682 61.9246 61.214 64.1669 64.8255C63.9883 64.8255 63.8693 64.8454 63.7502 64.8454C62.8374 64.8454 61.9048 64.8454 60.992 64.8454C60.734 64.8454 60.5753 64.7461 60.4364 64.5279C58.8489 61.8689 57.2614 59.2099 55.674 56.531C55.6145 56.412 55.5351 56.3128 55.4359 56.154C55.039 56.5707 54.6818 57.0271 54.2453 57.3446C53.3523 58.0193 53.0944 58.8527 53.1539 59.9639C53.2531 61.4125 53.1737 62.8809 53.1737 64.3294V64.8057H50.5544V47.8H53.1737V54.9039C53.2333 54.9436 53.2928 54.9833 53.3325 55.023C53.4119 54.9039 53.4515 54.765 53.5309 54.6658C55.674 52.4632 57.8369 50.2804 59.98 48.058C60.1784 47.8595 60.357 47.7603 60.6546 47.7802C61.5476 47.8 62.4405 47.7802 63.3335 47.7802C63.4724 47.7802 63.5914 47.7802 63.7899 47.7802ZM69.0285 50.6177C70.358 48.6731 71.7669 47.046 74.3862 47.5222V50.4392C73.6917 50.4788 72.9972 50.459 72.3423 50.5979C70.735 50.9352 69.4849 52.4036 69.2269 54.1895C69.1872 54.5467 69.1476 54.9039 69.1476 55.2611C69.1476 58.2971 69.1476 61.3331 69.1476 64.3691V64.8454H66.4489V47.8397H69.0285C69.0285 48.7326 69.0285 49.6256 69.0285 50.6177Z" fill="#5741D9"/>
</svg>
