<svg width="164" height="112" viewBox="0 0 164 112" fill="none" xmlns="http://www.w3.org/2000/svg">
<rect width="164" height="112" rx="20" fill="#1A1D2C"/>
<g clip-path="url(#clip0_552_82)">
<path d="M126.648 56.5671C126.037 56.1618 125.363 55.8736 124.725 55.5133C124.311 55.2791 123.87 55.0719 123.511 54.7746C122.9 54.2702 123.026 53.2794 123.664 52.8471C124.581 52.2346 126.099 52.5768 126.261 53.8289C126.261 53.8558 126.288 53.8739 126.315 53.8739H127.7C127.736 53.8739 127.763 53.8469 127.754 53.8109C127.682 52.9461 127.349 52.2255 126.738 51.7661C126.153 51.3248 125.489 51.0906 124.778 51.0906C121.12 51.0906 120.787 54.9728 122.756 56.1979C122.981 56.342 124.913 57.3147 125.596 57.7381C126.279 58.1614 126.495 58.9361 126.198 59.5486C125.929 60.1071 125.228 60.4944 124.527 60.4494C123.762 60.4043 123.169 59.99 122.963 59.3414C122.927 59.2244 122.909 58.9991 122.909 58.9001C122.909 58.873 122.882 58.846 122.855 58.846H121.354C121.327 58.846 121.3 58.873 121.3 58.9001C121.3 59.99 121.57 60.5935 122.307 61.143C122.999 61.6654 123.753 61.8816 124.536 61.8816C126.585 61.8816 127.646 60.7196 127.861 59.5126C128.05 58.3326 127.7 57.2697 126.648 56.5671Z" fill="white"/>
<path d="M61.4754 51.2888H60.8103H60.0822C60.0552 51.2888 60.0373 51.3068 60.0283 51.3248L58.797 55.3962C58.779 55.4503 58.7071 55.4503 58.6891 55.3962L57.4577 51.3248C57.4487 51.2978 57.4307 51.2888 57.4038 51.2888H56.6758H56.0106H55.1118C55.0848 51.2888 55.0579 51.3158 55.0579 51.3429V61.7375C55.0579 61.7645 55.0848 61.7916 55.1118 61.7916H56.6128C56.6398 61.7916 56.6668 61.7645 56.6668 61.7375V53.8379C56.6668 53.7749 56.7567 53.7659 56.7746 53.8199L58.0149 57.9184L58.1048 58.2066C58.1138 58.2336 58.1318 58.2426 58.1588 58.2426H59.3093C59.3362 58.2426 59.3542 58.2246 59.3632 58.2066L59.453 57.9184L60.6934 53.8199C60.7114 53.7569 60.8013 53.7749 60.8013 53.8379V61.7375C60.8013 61.7645 60.8283 61.7916 60.8552 61.7916H62.3562C62.3831 61.7916 62.4101 61.7645 62.4101 61.7375V51.3429C62.4101 51.3158 62.3831 51.2888 62.3562 51.2888H61.4754Z" fill="white"/>
<path d="M103.665 51.2888C103.638 51.2888 103.62 51.3068 103.611 51.3248L102.38 55.3962C102.362 55.4503 102.29 55.4503 102.272 55.3962L101.041 51.3248C101.032 51.2978 101.014 51.2888 100.987 51.2888H98.7039C98.6769 51.2888 98.6499 51.3158 98.6499 51.3429V61.7375C98.6499 61.7645 98.6769 61.7916 98.7039 61.7916H100.205C100.232 61.7916 100.259 61.7645 100.259 61.7375V53.8379C100.259 53.7749 100.349 53.7659 100.367 53.8199L101.607 57.9184L101.697 58.2066C101.706 58.2336 101.724 58.2426 101.751 58.2426H102.901C102.928 58.2426 102.946 58.2246 102.955 58.2066L103.045 57.9184L104.286 53.8199C104.304 53.7569 104.394 53.7749 104.394 53.8379V61.7375C104.394 61.7645 104.421 61.7916 104.448 61.7916H105.948C105.975 61.7916 106.002 61.7645 106.002 61.7375V51.3429C106.002 51.3158 105.975 51.2888 105.948 51.2888H103.665Z" fill="white"/>
<path d="M84.305 51.2888H81.5096H80.0086H77.2134C77.1864 51.2888 77.1594 51.3158 77.1594 51.3429V52.6399C77.1594 52.667 77.1864 52.694 77.2134 52.694H79.9547V61.7375C79.9547 61.7645 79.9817 61.7916 80.0086 61.7916H81.5096C81.5366 61.7916 81.5636 61.7645 81.5636 61.7375V52.694H84.305C84.3319 52.694 84.3589 52.667 84.3589 52.6399V51.3429C84.3589 51.3158 84.3409 51.2888 84.305 51.2888Z" fill="white"/>
<path d="M93.1586 61.7914H94.5243C94.5603 61.7914 94.5873 61.7554 94.5783 61.7194L91.7562 51.2887C91.7472 51.2617 91.7292 51.2527 91.7022 51.2527H91.181H90.2643H89.7429C89.716 51.2527 89.698 51.2707 89.689 51.2887L86.8667 61.7194C86.8577 61.7554 86.8847 61.7914 86.9207 61.7914H88.2868C88.3138 61.7914 88.3318 61.7734 88.3408 61.7554L89.1587 58.7199C89.1677 58.6929 89.1856 58.6839 89.2126 58.6839H92.2329C92.2599 58.6839 92.2778 58.7019 92.2868 58.7199L93.1046 61.7554C93.1136 61.7734 93.1406 61.7914 93.1586 61.7914ZM89.5721 57.1976L90.6687 53.1352C90.6866 53.0812 90.7586 53.0812 90.7766 53.1352L91.8731 57.1976C91.8821 57.2337 91.8551 57.2697 91.8191 57.2697H89.6261C89.5901 57.2697 89.5632 57.2337 89.5721 57.1976Z" fill="white"/>
<path d="M116.456 61.7914H117.821C117.857 61.7914 117.884 61.7554 117.875 61.7194L115.053 51.2887C115.044 51.2617 115.026 51.2527 114.999 51.2527H114.478H113.562H113.04C113.013 51.2527 112.995 51.2707 112.986 51.2887L110.164 61.7194C110.155 61.7554 110.182 61.7914 110.218 61.7914H111.584C111.611 61.7914 111.629 61.7734 111.638 61.7554L112.456 58.7199C112.465 58.6929 112.483 58.6839 112.51 58.6839H115.53C115.557 58.6839 115.575 58.7019 115.584 58.7199L116.402 61.7554C116.411 61.7734 116.429 61.7914 116.456 61.7914ZM112.869 57.1976L113.966 53.1352C113.984 53.0812 114.056 53.0812 114.074 53.1352L115.17 57.1976C115.179 57.2337 115.152 57.2697 115.116 57.2697H112.923C112.887 57.2697 112.86 57.2337 112.869 57.1976Z" fill="white"/>
<path d="M68.5041 60.2513V57.0266C68.5041 56.9996 68.5311 56.9726 68.5581 56.9726H72.5577C72.5847 56.9726 72.6117 56.9455 72.6117 56.9185V55.6214C72.6117 55.5945 72.5847 55.5674 72.5577 55.5674H68.5581C68.5311 55.5674 68.5041 55.5404 68.5041 55.5133V52.7571C68.5041 52.7301 68.5311 52.703 68.5581 52.703H73.106C73.133 52.703 73.16 52.676 73.16 52.649V51.3519C73.16 51.3249 73.133 51.2979 73.106 51.2979H68.5041H66.9492C66.9222 51.2979 66.8953 51.3249 66.8953 51.3519V52.703V55.5764V56.9816V60.3144V61.7375C66.8953 61.7646 66.9222 61.7916 66.9492 61.7916H68.5041H73.2948C73.3217 61.7916 73.3487 61.7646 73.3487 61.7375V60.3684C73.3487 60.3414 73.3217 60.3144 73.2948 60.3144H68.5491C68.5221 60.3054 68.5041 60.2873 68.5041 60.2513Z" fill="white"/>
<path d="M140.364 61.7015L135.168 56.324C135.15 56.306 135.15 56.27 135.168 56.252L139.843 51.3879C139.879 51.3519 139.852 51.2979 139.807 51.2979H137.892C137.874 51.2979 137.865 51.3069 137.856 51.3159L133.893 55.4413C133.857 55.4773 133.803 55.4503 133.803 55.4052V51.3519C133.803 51.3249 133.776 51.2979 133.749 51.2979H132.247C132.22 51.2979 132.193 51.3249 132.193 51.3519V61.7466C132.193 61.7736 132.22 61.8006 132.247 61.8006H133.749C133.776 61.8006 133.803 61.7736 133.803 61.7466V57.1708C133.803 57.1257 133.866 57.0987 133.893 57.1347L138.386 61.7826C138.395 61.7916 138.413 61.8006 138.422 61.8006H140.337C140.373 61.7916 140.4 61.7286 140.364 61.7015Z" fill="white"/>
<path d="M44.8025 45.6951L35.7156 52.4507L37.4054 48.4694L44.8025 45.6951Z" fill="#E17726" stroke="#E17726" stroke-width="0.25" stroke-linecap="round" stroke-linejoin="round"/>
<path d="M23.8423 45.6951L32.8483 52.5137L31.2395 48.4694L23.8423 45.6951Z" fill="#E27625" stroke="#E27625" stroke-width="0.25" stroke-linecap="round" stroke-linejoin="round"/>
<path d="M41.5306 61.3591L39.1128 65.0702L44.2899 66.5024L45.773 61.4403L41.5306 61.3591Z" fill="#E27625" stroke="#E27625" stroke-width="0.25" stroke-linecap="round" stroke-linejoin="round"/>
<path d="M22.8806 61.4403L24.3547 66.5024L29.5228 65.0702L27.114 61.3591L22.8806 61.4403Z" fill="#E27625" stroke="#E27625" stroke-width="0.25" stroke-linecap="round" stroke-linejoin="round"/>
<path d="M29.244 55.0899L27.8059 57.2698L32.9291 57.504L32.7583 51.9644L29.244 55.0899Z" fill="#E27625" stroke="#E27625" stroke-width="0.25" stroke-linecap="round" stroke-linejoin="round"/>
<path d="M39.4004 55.09L35.8322 51.9014L35.7153 57.504L40.8385 57.2698L39.4004 55.09Z" fill="#E27625" stroke="#E27625" stroke-width="0.25" stroke-linecap="round" stroke-linejoin="round"/>
<path d="M29.5227 65.0703L32.6236 63.5661L29.9541 61.4763L29.5227 65.0703Z" fill="#E27625" stroke="#E27625" stroke-width="0.25" stroke-linecap="round" stroke-linejoin="round"/>
<path d="M36.0212 63.5661L39.1131 65.0703L38.6906 61.4763L36.0212 63.5661Z" fill="#E27625" stroke="#E27625" stroke-width="0.25" stroke-linecap="round" stroke-linejoin="round"/>
<path d="M39.1131 65.0704L36.0212 63.5662L36.2729 65.5838L36.2459 66.4395L39.1131 65.0704Z" fill="#D5BFB2" stroke="#D5BFB2" stroke-width="0.25" stroke-linecap="round" stroke-linejoin="round"/>
<path d="M29.5227 65.0704L32.3989 66.4395L32.3809 65.5838L32.6236 63.5662L29.5227 65.0704Z" fill="#D5BFB2" stroke="#D5BFB2" stroke-width="0.25" stroke-linecap="round" stroke-linejoin="round"/>
<path d="M32.4529 60.1431L29.8823 59.3865L31.6979 58.5488L32.4529 60.1431Z" fill="#233447" stroke="#233447" stroke-width="0.25" stroke-linecap="round" stroke-linejoin="round"/>
<path d="M36.1919 60.1431L36.9469 58.5488L38.7715 59.3865L36.1919 60.1431Z" fill="#233447" stroke="#233447" stroke-width="0.25" stroke-linecap="round" stroke-linejoin="round"/>
<path d="M29.5228 65.0702L29.9722 61.3591L27.114 61.4403L29.5228 65.0702Z" fill="#CC6228" stroke="#CC6228" stroke-width="0.25" stroke-linecap="round" stroke-linejoin="round"/>
<path d="M38.6726 61.3591L39.113 65.0702L41.5308 61.4403L38.6726 61.3591Z" fill="#CC6228" stroke="#CC6228" stroke-width="0.25" stroke-linecap="round" stroke-linejoin="round"/>
<path d="M40.8385 57.2698L35.7153 57.504L36.1917 60.1432L36.9467 58.5488L38.7713 59.3866L40.8385 57.2698Z" fill="#CC6228" stroke="#CC6228" stroke-width="0.25" stroke-linecap="round" stroke-linejoin="round"/>
<path d="M29.8821 59.3866L31.6977 58.5488L32.4528 60.1432L32.9291 57.504L27.8059 57.2698L29.8821 59.3866Z" fill="#CC6228" stroke="#CC6228" stroke-width="0.25" stroke-linecap="round" stroke-linejoin="round"/>
<path d="M27.8062 57.2698L29.9543 61.4763L29.8824 59.3866L27.8062 57.2698Z" fill="#E27525" stroke="#E27525" stroke-width="0.25" stroke-linecap="round" stroke-linejoin="round"/>
<path d="M38.7716 59.3866L38.6907 61.4763L40.8388 57.2698L38.7716 59.3866Z" fill="#E27525" stroke="#E27525" stroke-width="0.25" stroke-linecap="round" stroke-linejoin="round"/>
<path d="M32.9295 57.5039L32.4531 60.1432L33.0553 63.2597L33.1902 59.1523L32.9295 57.5039Z" fill="#E27525" stroke="#E27525" stroke-width="0.25" stroke-linecap="round" stroke-linejoin="round"/>
<path d="M35.7156 57.5039L35.4639 59.1433L35.5897 63.2597L36.1919 60.1432L35.7156 57.5039Z" fill="#E27525" stroke="#E27525" stroke-width="0.25" stroke-linecap="round" stroke-linejoin="round"/>
<path d="M36.192 60.1431L35.5898 63.2597L36.0213 63.566L38.6908 61.4762L38.7716 59.3865L36.192 60.1431Z" fill="#F5841F" stroke="#F5841F" stroke-width="0.25" stroke-linecap="round" stroke-linejoin="round"/>
<path d="M29.8823 59.3865L29.9543 61.4762L32.6237 63.566L33.0551 63.2597L32.4529 60.1431L29.8823 59.3865Z" fill="#F5841F" stroke="#F5841F" stroke-width="0.25" stroke-linecap="round" stroke-linejoin="round"/>
<path d="M36.2458 66.4395L36.2727 65.5837L36.0391 65.3856H32.6056L32.3809 65.5837L32.3989 66.4395L29.5227 65.0703L30.5294 65.899L32.5697 67.3132H36.066L38.1153 65.899L39.1129 65.0703L36.2458 66.4395Z" fill="#C0AC9D" stroke="#C0AC9D" stroke-width="0.25" stroke-linecap="round" stroke-linejoin="round"/>
<path d="M36.021 63.566L35.5896 63.2598H33.0549L32.6236 63.566L32.3809 65.5837L32.6056 65.3855H36.039L36.2727 65.5837L36.021 63.566Z" fill="#161616" stroke="#161616" stroke-width="0.25" stroke-linecap="round" stroke-linejoin="round"/>
<path d="M45.189 52.892L45.953 49.163L44.8025 45.6951L36.0212 52.2255L39.4007 55.0899L44.1734 56.4861L45.225 55.252L44.7666 54.9187L45.4946 54.2522L44.9374 53.8198L45.6654 53.2614L45.189 52.892Z" fill="#763E1A" stroke="#763E1A" stroke-width="0.25" stroke-linecap="round" stroke-linejoin="round"/>
<path d="M22.6919 49.163L23.4649 52.892L22.9705 53.2614L23.7075 53.8198L23.1503 54.2522L23.8783 54.9187L23.4199 55.252L24.4715 56.4861L29.2442 55.0899L32.6237 52.2255L23.8424 45.6951L22.6919 49.163Z" fill="#763E1A" stroke="#763E1A" stroke-width="0.25" stroke-linecap="round" stroke-linejoin="round"/>
<path d="M44.1734 56.486L39.4007 55.0898L40.8388 57.2697L38.6907 61.4761L41.5309 61.4401H45.7733L44.1734 56.486Z" fill="#F5841F" stroke="#F5841F" stroke-width="0.25" stroke-linecap="round" stroke-linejoin="round"/>
<path d="M29.2441 55.0898L24.4715 56.486L22.8806 61.4401H27.114L29.9542 61.4761L27.8061 57.2697L29.2441 55.0898Z" fill="#F5841F" stroke="#F5841F" stroke-width="0.25" stroke-linecap="round" stroke-linejoin="round"/>
<path d="M35.7156 57.504L36.0212 52.2256L37.4053 48.4695H31.2395L32.6236 52.2256L32.9292 57.504L33.0461 59.1614L33.0551 63.2598H35.5897L35.5987 59.1614L35.7156 57.504Z" fill="#F5841F" stroke="#F5841F" stroke-width="0.25" stroke-linecap="round" stroke-linejoin="round"/>
</g>
<defs>
<clipPath id="clip0_552_82">
<rect width="119" height="22.9398" fill="white" transform="translate(22 45)"/>
</clipPath>
</defs>
</svg>
