<svg width="164" height="112" viewBox="0 0 164 112" fill="none" xmlns="http://www.w3.org/2000/svg">
<rect width="164" height="112" rx="20" fill="#1A1D2C"/>
<path d="M48.2905 44C44.9909 44 42.3207 46.6507 42.3207 49.9261V52.1472C41.162 52.3554 40 52.6331 40 52.9933V64.5845C40 64.5845 40 64.9051 40.3629 65.0571C41.6781 65.5859 46.8521 67.4038 48.0408 67.8202C48.1939 67.8764 48.2372 67.8764 48.2772 67.8764C48.3338 67.8764 48.3604 67.8764 48.5135 67.8202C49.7022 67.4038 54.8896 65.5859 56.2047 65.0571C56.541 64.9183 56.5543 64.5977 56.5543 64.5977V52.9933C56.5543 52.6331 55.409 52.3422 54.247 52.1472V49.9261C54.2636 46.6507 51.5767 44 48.2905 44ZM48.2905 46.8325C50.2349 46.8325 51.4102 47.9992 51.4102 49.9294V51.8596C49.2294 51.7076 47.3682 51.7076 45.1741 51.8596V49.9294C45.1741 47.9959 46.3494 46.8325 48.2905 46.8325ZM48.2772 54.7021C50.9907 54.7021 53.2681 54.9103 53.2681 55.2838V62.5154C53.2681 62.6278 53.2548 62.641 53.1549 62.6807C53.0583 62.7237 48.5269 64.3465 48.5269 64.3465C48.5269 64.3465 48.3437 64.4027 48.2905 64.4027C48.2339 64.4027 48.0541 64.3333 48.0541 64.3333C48.0541 64.3333 43.5226 62.7105 43.4261 62.6675C43.3295 62.6245 43.3129 62.6113 43.3129 62.5022V55.2706C43.2862 54.8971 45.5636 54.7021 48.2772 54.7021Z" fill="white"/>
<path d="M64.1174 62.6455V54.7128H61.219V51.8682H70.256V54.7128H67.386V62.6455H64.1174Z" fill="white"/>
<path d="M77.5779 62.6455L76.0907 59.2566H74.9073V62.6455H71.6387V51.8682H77.3912C79.9163 51.8682 81.2705 53.542 81.2705 55.5608C81.2705 57.4214 80.1947 58.4054 79.3309 58.8294L81.2832 62.6423H77.5779V62.6455ZM77.9639 55.5608C77.9639 54.9754 77.445 54.7223 76.9008 54.7223H74.9073V56.4246H76.9008C77.445 56.412 77.9639 56.1588 77.9639 55.5608Z" fill="white"/>
<path d="M82.9856 62.6455V51.8682H91.1588V54.7128H86.2416V55.776H91.0385V58.6206H86.2416V59.804H91.1588V62.6455H82.9856Z" fill="white"/>
<path d="M92.8579 62.6582V60.0667L96.9651 54.7255H92.8579V51.8809H101.268V54.447L97.1486 59.8167H101.389V62.6613L92.8579 62.6582Z" fill="white"/>
<path d="M102.186 57.2758C102.186 53.966 104.752 51.6941 108.087 51.6941C111.41 51.6941 113.989 53.9533 113.989 57.2758C113.989 60.5855 111.422 62.8448 108.087 62.8448C104.752 62.8448 102.186 60.5855 102.186 57.2758ZM110.666 57.2758C110.666 55.7728 109.644 54.5767 108.075 54.5767C106.505 54.5767 105.483 55.7728 105.483 57.2758C105.483 58.7788 106.505 59.9748 108.075 59.9748C109.657 59.9748 110.666 58.7788 110.666 57.2758Z" fill="white"/>
<path d="M121.295 62.6582L119.808 59.2693H118.624V62.6582H115.355V51.8809H121.108C123.633 51.8809 124.987 53.5547 124.987 55.5735C124.987 57.4341 123.912 58.4181 123.048 58.8421L125 62.655H121.295V62.6582ZM121.693 55.5608C121.693 54.9755 121.174 54.7223 120.63 54.7223H118.637V56.4247H120.63C121.178 56.412 121.693 56.1589 121.693 55.5608Z" fill="white"/>
</svg>
