<svg width="610" height="653" viewBox="0 0 610 653" fill="none" xmlns="http://www.w3.org/2000/svg">
<g opacity="0.2" clip-path="url(#clip0_587_5990)">
<mask id="mask0_587_5990" style="mask-type:luminance" maskUnits="userSpaceOnUse" x="45" y="45" width="582" height="582">
<path d="M610.416 45H45V610.416H610.416V45Z" fill="white"/>
<path d="M275.066 559.724C275.066 560.758 275.477 561.75 276.208 562.481C276.939 563.212 277.931 563.623 278.965 563.623C279.999 563.623 280.991 563.212 281.723 562.481C282.454 561.75 282.865 560.758 282.865 559.724C282.865 558.69 282.454 557.698 281.723 556.966C280.991 556.235 279.999 555.824 278.965 555.824C277.931 555.824 276.939 556.235 276.208 556.966C275.477 557.698 275.066 558.69 275.066 559.724ZM56.6982 60.5977C56.6982 61.6319 57.1091 62.6237 57.8404 63.355C58.5716 64.0863 59.5635 64.4971 60.5977 64.4971C61.6319 64.4971 62.6237 64.0863 63.355 63.355C64.0863 62.6237 64.4971 61.6319 64.4971 60.5977C64.4971 59.5635 64.0863 58.5717 63.355 57.8404C62.6237 57.1091 61.6319 56.6983 60.5977 56.6983C59.5635 56.6983 58.5716 57.1091 57.8404 57.8404C57.1091 58.5717 56.6982 59.5635 56.6982 60.5977Z" fill="black"/>
<path d="M524.629 278.965C524.629 279.999 525.04 280.991 525.771 281.723C526.502 282.454 527.494 282.865 528.528 282.865C529.562 282.865 530.554 282.454 531.286 281.723C532.017 280.991 532.428 279.999 532.428 278.965C532.428 277.931 532.017 276.939 531.286 276.208C530.554 275.477 529.562 275.066 528.528 275.066C527.494 275.066 526.502 275.477 525.771 276.208C525.04 276.939 524.629 277.931 524.629 278.965ZM181.48 622.114C181.48 623.149 181.891 624.14 182.622 624.872C183.353 625.603 184.345 626.014 185.379 626.014C186.413 626.014 187.405 625.603 188.136 624.872C188.868 624.14 189.279 623.149 189.279 622.114C189.279 621.08 188.868 620.088 188.136 619.357C187.405 618.626 186.413 618.215 185.379 618.215C184.345 618.215 183.353 618.626 182.622 619.357C181.891 620.088 181.48 621.08 181.48 622.114Z" fill="black"/>
<path d="M399.847 154.184C399.847 155.218 400.258 156.21 400.989 156.941C401.721 157.672 402.712 158.083 403.747 158.083C404.781 158.083 405.773 157.672 406.504 156.941C407.235 156.21 407.646 155.218 407.646 154.184C407.646 153.15 407.235 152.158 406.504 151.427C405.773 150.695 404.781 150.284 403.747 150.284C402.712 150.284 401.721 150.695 400.989 151.427C400.258 152.158 399.847 153.15 399.847 154.184ZM87.8936 216.575C87.8936 217.609 88.3044 218.601 89.0357 219.332C89.767 220.063 90.7588 220.474 91.793 220.474C92.8272 220.474 93.819 220.063 94.5503 219.332C95.2816 218.601 95.6924 217.609 95.6924 216.575C95.6924 215.54 95.2816 214.549 94.5503 213.817C93.819 213.086 92.8272 212.675 91.793 212.675C90.7588 212.675 89.767 213.086 89.0357 213.817C88.3044 214.549 87.8936 215.54 87.8936 216.575Z" fill="black"/>
<path d="M587.02 154.184C587.02 155.218 587.43 156.21 588.162 156.941C588.893 157.672 589.885 158.083 590.919 158.083C591.953 158.083 592.945 157.672 593.676 156.941C594.408 156.21 594.818 155.218 594.818 154.184C594.818 153.15 594.408 152.158 593.676 151.427C592.945 150.695 591.953 150.284 590.919 150.284C589.885 150.284 588.893 150.695 588.162 151.427C587.43 152.158 587.02 153.15 587.02 154.184ZM87.8936 60.5977C87.8936 61.6319 88.3044 62.6237 89.0357 63.355C89.767 64.0863 90.7588 64.4971 91.793 64.4971C92.8272 64.4971 93.819 64.0863 94.5503 63.355C95.2816 62.6237 95.6924 61.6319 95.6924 60.5977C95.6924 59.5635 95.2816 58.5717 94.5503 57.8404C93.819 57.1091 92.8272 56.6983 91.793 56.6983C90.7588 56.6983 89.767 57.1091 89.0357 57.8404C88.3044 58.5717 87.8936 59.5635 87.8936 60.5977Z" fill="black"/>
<path d="M306.261 372.551C306.261 373.586 306.672 374.577 307.403 375.309C308.134 376.04 309.126 376.451 310.161 376.451C311.195 376.451 312.187 376.04 312.918 375.309C313.649 374.577 314.06 373.586 314.06 372.551C314.06 371.517 313.649 370.525 312.918 369.794C312.187 369.063 311.195 368.652 310.161 368.652C309.126 368.652 308.134 369.063 307.403 369.794C306.672 370.525 306.261 371.517 306.261 372.551ZM119.089 91.7931C119.089 92.8273 119.5 93.8191 120.231 94.5504C120.962 95.2817 121.954 95.6925 122.988 95.6925C124.022 95.6925 125.014 95.2817 125.746 94.5504C126.477 93.8191 126.888 92.8273 126.888 91.7931C126.888 90.7589 126.477 89.7671 125.746 89.0358C125.014 88.3045 124.022 87.8937 122.988 87.8937C121.954 87.8937 120.962 88.3045 120.231 89.0358C119.5 89.7671 119.089 90.7589 119.089 91.7931Z" fill="black"/>
<path d="M462.238 278.965C462.238 279.999 462.649 280.991 463.38 281.723C464.111 282.454 465.103 282.865 466.138 282.865C467.172 282.865 468.164 282.454 468.895 281.723C469.626 280.991 470.037 279.999 470.037 278.965C470.037 277.931 469.626 276.939 468.895 276.208C468.164 275.477 467.172 275.066 466.138 275.066C465.103 275.066 464.111 275.477 463.38 276.208C462.649 276.939 462.238 277.931 462.238 278.965ZM431.043 590.919C431.043 591.953 431.454 592.945 432.185 593.676C432.916 594.408 433.908 594.818 434.942 594.818C435.976 594.818 436.968 594.408 437.699 593.676C438.431 592.945 438.842 591.953 438.842 590.919C438.842 589.885 438.431 588.893 437.699 588.162C436.968 587.43 435.976 587.02 434.942 587.02C433.908 587.02 432.916 587.43 432.185 588.162C431.454 588.893 431.043 589.885 431.043 590.919Z" fill="black"/>
<path d="M212.675 216.575C212.675 217.609 213.086 218.601 213.817 219.332C214.548 220.063 215.54 220.474 216.574 220.474C217.609 220.474 218.6 220.063 219.332 219.332C220.063 218.601 220.474 217.609 220.474 216.575C220.474 215.54 220.063 214.549 219.332 213.817C218.6 213.086 217.609 212.675 216.574 212.675C215.54 212.675 214.548 213.086 213.817 213.817C213.086 214.549 212.675 215.54 212.675 216.575ZM275.066 372.551C275.066 373.586 275.477 374.577 276.208 375.309C276.939 376.04 277.931 376.451 278.965 376.451C279.999 376.451 280.991 376.04 281.723 375.309C282.454 374.577 282.865 373.586 282.865 372.551C282.865 371.517 282.454 370.525 281.723 369.794C280.991 369.063 279.999 368.652 278.965 368.652C277.931 368.652 276.939 369.063 276.208 369.794C275.477 370.525 275.066 371.517 275.066 372.551Z" fill="black"/>
<path d="M587.02 590.919C587.02 591.953 587.43 592.945 588.162 593.676C588.893 594.408 589.885 594.818 590.919 594.818C591.953 594.818 592.945 594.408 593.676 593.676C594.408 592.945 594.818 591.953 594.818 590.919C594.818 589.885 594.408 588.893 593.676 588.162C592.945 587.43 591.953 587.02 590.919 587.02C589.885 587.02 588.893 587.43 588.162 588.162C587.43 588.893 587.02 589.885 587.02 590.919ZM462.238 622.114C462.238 623.149 462.649 624.14 463.38 624.872C464.111 625.603 465.103 626.014 466.137 626.014C467.172 626.014 468.163 625.603 468.895 624.872C469.626 624.14 470.037 623.149 470.037 622.114C470.037 621.08 469.626 620.088 468.895 619.357C468.163 618.626 467.172 618.215 466.137 618.215C465.103 618.215 464.111 618.626 463.38 619.357C462.649 620.088 462.238 621.08 462.238 622.114Z" fill="black"/>
<path d="M56.6982 403.747C56.6982 404.781 57.1091 405.773 57.8404 406.504C58.5716 407.235 59.5635 407.646 60.5977 407.646C61.6319 407.646 62.6237 407.235 63.355 406.504C64.0863 405.773 64.4971 404.781 64.4971 403.747C64.4971 402.713 64.0863 401.721 63.355 400.989C62.6237 400.258 61.6319 399.847 60.5977 399.847C59.5635 399.847 58.5716 400.258 57.8404 400.989C57.1091 401.721 56.6982 402.713 56.6982 403.747ZM243.87 590.919C243.87 591.953 244.281 592.945 245.013 593.676C245.744 594.408 246.736 594.818 247.77 594.818C248.804 594.818 249.796 594.408 250.527 593.676C251.258 592.945 251.669 591.953 251.669 590.919C251.669 589.885 251.258 588.893 250.527 588.162C249.796 587.43 248.804 587.02 247.77 587.02C246.736 587.02 245.744 587.43 245.013 588.162C244.281 588.893 243.87 589.885 243.87 590.919Z" fill="black"/>
<path d="M337.457 341.356C337.457 342.39 337.867 343.382 338.599 344.113C339.33 344.845 340.322 345.255 341.356 345.255C342.39 345.255 343.382 344.845 344.113 344.113C344.845 343.382 345.255 342.39 345.255 341.356C345.255 340.322 344.845 339.33 344.113 338.599C343.382 337.867 342.39 337.457 341.356 337.457C340.322 337.457 339.33 337.867 338.599 338.599C337.867 339.33 337.457 340.322 337.457 341.356ZM368.652 216.575C368.652 217.609 369.063 218.601 369.794 219.332C370.525 220.063 371.517 220.474 372.551 220.474C373.586 220.474 374.577 220.063 375.309 219.332C376.04 218.601 376.451 217.609 376.451 216.575C376.451 215.54 376.04 214.549 375.309 213.817C374.577 213.086 373.586 212.675 372.551 212.675C371.517 212.675 370.525 213.086 369.794 213.817C369.063 214.549 368.652 215.54 368.652 216.575Z" fill="black"/>
<path d="M306.261 434.942C306.261 435.976 306.672 436.968 307.403 437.699C308.135 438.431 309.127 438.842 310.161 438.842C311.195 438.842 312.187 438.431 312.918 437.699C313.649 436.968 314.06 435.976 314.06 434.942C314.06 433.908 313.649 432.916 312.918 432.185C312.187 431.454 311.195 431.043 310.161 431.043C309.127 431.043 308.135 431.454 307.403 432.185C306.672 432.916 306.261 433.908 306.261 434.942ZM275.066 590.919C275.066 591.953 275.477 592.945 276.208 593.676C276.939 594.408 277.931 594.818 278.965 594.818C280 594.818 280.991 594.408 281.723 593.676C282.454 592.945 282.865 591.953 282.865 590.919C282.865 589.885 282.454 588.893 281.723 588.162C280.991 587.43 280 587.02 278.965 587.02C277.931 587.02 276.939 587.43 276.208 588.162C275.477 588.893 275.066 589.885 275.066 590.919Z" fill="black"/>
<path d="M555.824 247.77C555.824 248.804 556.235 249.796 556.966 250.527C557.698 251.258 558.689 251.669 559.724 251.669C560.758 251.669 561.75 251.258 562.481 250.527C563.212 249.796 563.623 248.804 563.623 247.77C563.623 246.736 563.212 245.744 562.481 245.013C561.75 244.281 560.758 243.87 559.724 243.87C558.689 243.87 557.698 244.281 556.966 245.013C556.235 245.744 555.824 246.736 555.824 247.77ZM431.043 247.77C431.043 248.804 431.454 249.796 432.185 250.527C432.916 251.258 433.908 251.669 434.942 251.669C435.976 251.669 436.968 251.258 437.699 250.527C438.431 249.796 438.842 248.804 438.842 247.77C438.842 246.736 438.431 245.744 437.699 245.013C436.968 244.281 435.976 243.87 434.942 243.87C433.908 243.87 432.916 244.281 432.185 245.013C431.454 245.744 431.043 246.736 431.043 247.77Z" fill="black"/>
<path d="M243.87 403.747C243.87 404.781 244.281 405.773 245.012 406.504C245.744 407.235 246.736 407.646 247.77 407.646C248.804 407.646 249.796 407.235 250.527 406.504C251.258 405.773 251.669 404.781 251.669 403.747C251.669 402.713 251.258 401.721 250.527 400.989C249.796 400.258 248.804 399.847 247.77 399.847C246.736 399.847 245.744 400.258 245.012 400.989C244.281 401.721 243.87 402.713 243.87 403.747ZM150.284 341.356C150.284 342.39 150.695 343.382 151.426 344.113C152.158 344.845 153.149 345.255 154.184 345.255C155.218 345.255 156.21 344.845 156.941 344.113C157.672 343.382 158.083 342.39 158.083 341.356C158.083 340.322 157.672 339.33 156.941 338.599C156.21 337.867 155.218 337.457 154.184 337.457C153.149 337.457 152.158 337.867 151.426 338.599C150.695 339.33 150.284 340.322 150.284 341.356Z" fill="black"/>
<path d="M431.043 434.942C431.043 435.976 431.454 436.968 432.185 437.699C432.916 438.431 433.908 438.842 434.942 438.842C435.976 438.842 436.968 438.431 437.699 437.699C438.431 436.968 438.842 435.976 438.842 434.942C438.842 433.908 438.431 432.916 437.699 432.185C436.968 431.454 435.976 431.043 434.942 431.043C433.908 431.043 432.916 431.454 432.185 432.185C431.454 432.916 431.043 433.908 431.043 434.942ZM493.433 341.356C493.433 342.39 493.844 343.382 494.576 344.113C495.307 344.845 496.299 345.255 497.333 345.255C498.367 345.255 499.359 344.845 500.09 344.113C500.821 343.382 501.232 342.39 501.232 341.356C501.232 340.322 500.821 339.33 500.09 338.599C499.359 337.867 498.367 337.457 497.333 337.457C496.299 337.457 495.307 337.867 494.576 338.599C493.844 339.33 493.433 340.322 493.433 341.356Z" fill="black"/>
<path d="M555.824 60.5977C555.824 61.6319 556.235 62.6237 556.966 63.355C557.698 64.0863 558.689 64.4971 559.724 64.4971C560.758 64.4971 561.75 64.0863 562.481 63.355C563.212 62.6237 563.623 61.6319 563.623 60.5977C563.623 59.5635 563.212 58.5717 562.481 57.8404C561.75 57.1091 560.758 56.6983 559.724 56.6983C558.689 56.6983 557.698 57.1091 556.966 57.8404C556.235 58.5717 555.824 59.5635 555.824 60.5977ZM431.043 122.988C431.043 124.023 431.454 125.014 432.185 125.746C432.916 126.477 433.908 126.888 434.942 126.888C435.976 126.888 436.968 126.477 437.699 125.746C438.431 125.014 438.842 124.023 438.842 122.988C438.842 121.954 438.431 120.962 437.699 120.231C436.968 119.5 435.976 119.089 434.942 119.089C433.908 119.089 432.916 119.5 432.185 120.231C431.454 120.962 431.043 121.954 431.043 122.988Z" fill="black"/>
<path d="M181.48 122.988C181.48 124.023 181.891 125.014 182.622 125.746C183.353 126.477 184.345 126.888 185.379 126.888C186.413 126.888 187.405 126.477 188.136 125.746C188.868 125.014 189.279 124.023 189.279 122.988C189.279 121.954 188.868 120.962 188.136 120.231C187.405 119.5 186.413 119.089 185.379 119.089C184.345 119.089 183.353 119.5 182.622 120.231C181.891 120.962 181.48 121.954 181.48 122.988ZM368.652 154.184C368.652 155.218 369.063 156.21 369.794 156.941C370.525 157.672 371.517 158.083 372.551 158.083C373.586 158.083 374.577 157.672 375.309 156.941C376.04 156.21 376.451 155.218 376.451 154.184C376.451 153.15 376.04 152.158 375.309 151.426C374.577 150.695 373.586 150.284 372.551 150.284C371.517 150.284 370.525 150.695 369.794 151.426C369.063 152.158 368.652 153.15 368.652 154.184Z" fill="black"/>
<path d="M462.238 216.575C462.238 217.609 462.649 218.601 463.38 219.332C464.111 220.063 465.103 220.474 466.137 220.474C467.172 220.474 468.163 220.063 468.895 219.332C469.626 218.601 470.037 217.609 470.037 216.575C470.037 215.54 469.626 214.549 468.895 213.817C468.163 213.086 467.172 212.675 466.137 212.675C465.103 212.675 464.111 213.086 463.38 213.817C462.649 214.549 462.238 215.54 462.238 216.575ZM618.215 216.575C618.215 217.609 618.626 218.601 619.357 219.332C620.088 220.063 621.08 220.474 622.114 220.474C623.149 220.474 624.14 220.063 624.872 219.332C625.603 218.601 626.014 217.609 626.014 216.575C626.014 215.54 625.603 214.549 624.872 213.817C624.14 213.086 623.149 212.675 622.114 212.675C621.08 212.675 620.088 213.086 619.357 213.817C618.626 214.549 618.215 215.54 618.215 216.575Z" fill="black"/>
<path d="M181.48 91.7931C181.48 92.8273 181.891 93.8191 182.622 94.5504C183.353 95.2817 184.345 95.6925 185.379 95.6925C186.413 95.6925 187.405 95.2817 188.136 94.5504C188.868 93.8191 189.279 92.8273 189.279 91.7931C189.279 90.7589 188.868 89.7671 188.136 89.0358C187.405 88.3045 186.413 87.8937 185.379 87.8937C184.345 87.8937 183.353 88.3045 182.622 89.0358C181.891 89.7671 181.48 90.7589 181.48 91.7931ZM243.87 372.551C243.87 373.586 244.281 374.577 245.013 375.309C245.744 376.04 246.736 376.451 247.77 376.451C248.804 376.451 249.796 376.04 250.527 375.309C251.258 374.577 251.669 373.586 251.669 372.551C251.669 371.517 251.258 370.525 250.527 369.794C249.796 369.063 248.804 368.652 247.77 368.652C246.736 368.652 245.744 369.063 245.013 369.794C244.281 370.525 243.87 371.517 243.87 372.551Z" fill="black"/>
<path d="M618.215 185.379C618.215 186.413 618.626 187.405 619.357 188.136C620.088 188.868 621.08 189.279 622.114 189.279C623.149 189.279 624.14 188.868 624.872 188.136C625.603 187.405 626.014 186.413 626.014 185.379C626.014 184.345 625.603 183.353 624.872 182.622C624.14 181.891 623.149 181.48 622.114 181.48C621.08 181.48 620.088 181.891 619.357 182.622C618.626 183.353 618.215 184.345 618.215 185.379ZM431.043 185.379C431.043 186.413 431.454 187.405 432.185 188.136C432.916 188.868 433.908 189.279 434.942 189.279C435.976 189.279 436.968 188.868 437.699 188.136C438.431 187.405 438.842 186.413 438.842 185.379C438.842 184.345 438.431 183.353 437.699 182.622C436.968 181.891 435.976 181.48 434.942 181.48C433.908 181.48 432.916 181.891 432.185 182.622C431.454 183.353 431.043 184.345 431.043 185.379Z" fill="black"/>
<path d="M56.6982 590.919C56.6982 591.953 57.1091 592.945 57.8404 593.676C58.5716 594.408 59.5635 594.818 60.5977 594.818C61.6319 594.818 62.6237 594.408 63.355 593.676C64.0863 592.945 64.4971 591.953 64.4971 590.919C64.4971 589.885 64.0863 588.893 63.355 588.162C62.6237 587.43 61.6319 587.02 60.5977 587.02C59.5635 587.02 58.5716 587.43 57.8404 588.162C57.1091 588.893 56.6982 589.885 56.6982 590.919ZM56.6982 434.942C56.6982 435.976 57.1091 436.968 57.8404 437.699C58.5716 438.431 59.5635 438.842 60.5977 438.842C61.6319 438.842 62.6237 438.431 63.355 437.699C64.0863 436.968 64.4971 435.976 64.4971 434.942C64.4971 433.908 64.0863 432.916 63.355 432.185C62.6237 431.454 61.6319 431.043 60.5977 431.043C59.5635 431.043 58.5716 431.454 57.8404 432.185C57.1091 432.916 56.6982 433.908 56.6982 434.942Z" fill="black"/>
<path d="M181.48 590.919C181.48 591.953 181.89 592.945 182.622 593.676C183.353 594.408 184.345 594.818 185.379 594.818C186.413 594.818 187.405 594.408 188.136 593.676C188.868 592.945 189.279 591.953 189.279 590.919C189.279 589.885 188.868 588.893 188.136 588.162C187.405 587.43 186.413 587.02 185.379 587.02C184.345 587.02 183.353 587.43 182.622 588.162C181.89 588.893 181.48 589.885 181.48 590.919ZM87.8936 434.942C87.8936 435.976 88.3044 436.968 89.0357 437.699C89.767 438.431 90.7588 438.842 91.793 438.842C92.8272 438.842 93.819 438.431 94.5503 437.699C95.2816 436.968 95.6924 435.976 95.6924 434.942C95.6924 433.908 95.2816 432.916 94.5503 432.185C93.819 431.454 92.8272 431.043 91.793 431.043C90.7588 431.043 89.767 431.454 89.0357 432.185C88.3044 432.916 87.8936 433.908 87.8936 434.942Z" fill="black"/>
<path d="M306.261 185.379C306.261 186.413 306.672 187.405 307.403 188.136C308.135 188.868 309.126 189.279 310.161 189.279C311.195 189.279 312.187 188.868 312.918 188.136C313.649 187.405 314.06 186.413 314.06 185.379C314.06 184.345 313.649 183.353 312.918 182.622C312.187 181.891 311.195 181.48 310.161 181.48C309.126 181.48 308.135 181.891 307.403 182.622C306.672 183.353 306.261 184.345 306.261 185.379ZM181.48 154.184C181.48 155.218 181.891 156.21 182.622 156.941C183.353 157.672 184.345 158.083 185.379 158.083C186.413 158.083 187.405 157.672 188.136 156.941C188.868 156.21 189.279 155.218 189.279 154.184C189.279 153.15 188.868 152.158 188.136 151.427C187.405 150.695 186.413 150.284 185.379 150.284C184.345 150.284 183.353 150.695 182.622 151.427C181.891 152.158 181.48 153.15 181.48 154.184Z" fill="black"/>
<path d="M399.847 91.7931C399.847 92.8273 400.258 93.8191 400.989 94.5504C401.721 95.2817 402.712 95.6925 403.747 95.6925C404.781 95.6925 405.773 95.2817 406.504 94.5504C407.235 93.8191 407.646 92.8273 407.646 91.7931C407.646 90.7589 407.235 89.7671 406.504 89.0358C405.773 88.3045 404.781 87.8937 403.747 87.8937C402.712 87.8937 401.721 88.3045 400.989 89.0358C400.258 89.7671 399.847 90.7589 399.847 91.7931ZM524.629 60.5977C524.629 61.6319 525.039 62.6237 525.771 63.355C526.502 64.0863 527.494 64.4971 528.528 64.4971C529.562 64.4971 530.554 64.0863 531.285 63.355C532.017 62.6237 532.428 61.6319 532.428 60.5977C532.428 59.5635 532.017 58.5717 531.285 57.8404C530.554 57.1091 529.562 56.6983 528.528 56.6983C527.494 56.6983 526.502 57.1091 525.771 57.8404C525.039 58.5717 524.629 59.5635 524.629 60.5977Z" fill="black"/>
<path d="M618.215 60.5977C618.215 61.6319 618.626 62.6237 619.357 63.355C620.088 64.0863 621.08 64.4971 622.114 64.4971C623.149 64.4971 624.14 64.0863 624.872 63.355C625.603 62.6237 626.014 61.6319 626.014 60.5977C626.014 59.5635 625.603 58.5717 624.872 57.8404C624.14 57.1091 623.149 56.6983 622.114 56.6983C621.08 56.6983 620.088 57.1091 619.357 57.8404C618.626 58.5717 618.215 59.5635 618.215 60.5977ZM462.238 122.988C462.238 124.023 462.649 125.014 463.38 125.746C464.111 126.477 465.103 126.888 466.137 126.888C467.172 126.888 468.163 126.477 468.895 125.746C469.626 125.014 470.037 124.023 470.037 122.988C470.037 121.954 469.626 120.962 468.895 120.231C468.163 119.5 467.172 119.089 466.137 119.089C465.103 119.089 464.111 119.5 463.38 120.231C462.649 120.962 462.238 121.954 462.238 122.988Z" fill="black"/>
<path d="M87.8936 91.7931C87.8936 92.8273 88.3044 93.8191 89.0357 94.5504C89.767 95.2817 90.7588 95.6925 91.793 95.6925C92.8272 95.6925 93.819 95.2817 94.5503 94.5504C95.2816 93.8191 95.6924 92.8273 95.6924 91.7931C95.6924 90.7589 95.2816 89.7671 94.5503 89.0358C93.819 88.3045 92.8272 87.8937 91.793 87.8937C90.7588 87.8937 89.767 88.3045 89.0357 89.0358C88.3044 89.7671 87.8936 90.7589 87.8936 91.7931ZM87.8936 154.184C87.8936 155.218 88.3044 156.21 89.0357 156.941C89.767 157.672 90.7588 158.083 91.793 158.083C92.8272 158.083 93.819 157.672 94.5503 156.941C95.2816 156.21 95.6924 155.218 95.6924 154.184C95.6924 153.15 95.2816 152.158 94.5503 151.427C93.819 150.695 92.8272 150.284 91.793 150.284C90.7588 150.284 89.767 150.695 89.0357 151.427C88.3044 152.158 87.8936 153.15 87.8936 154.184Z" fill="black"/>
<path d="M337.457 216.575C337.457 217.609 337.867 218.601 338.599 219.332C339.33 220.063 340.322 220.474 341.356 220.474C342.39 220.474 343.382 220.063 344.113 219.332C344.845 218.601 345.255 217.609 345.255 216.575C345.255 215.54 344.845 214.549 344.113 213.817C343.382 213.086 342.39 212.675 341.356 212.675C340.322 212.675 339.33 213.086 338.599 213.817C337.867 214.549 337.457 215.54 337.457 216.575ZM181.48 185.379C181.48 186.413 181.891 187.405 182.622 188.136C183.353 188.868 184.345 189.279 185.379 189.279C186.413 189.279 187.405 188.868 188.136 188.136C188.868 187.405 189.279 186.413 189.279 185.379C189.279 184.345 188.868 183.353 188.136 182.622C187.405 181.891 186.413 181.48 185.379 181.48C184.345 181.48 183.353 181.891 182.622 182.622C181.891 183.353 181.48 184.345 181.48 185.379Z" fill="black"/>
<path d="M399.847 528.528C399.847 529.562 400.258 530.554 400.989 531.286C401.721 532.017 402.712 532.428 403.747 532.428C404.781 532.428 405.773 532.017 406.504 531.286C407.235 530.554 407.646 529.562 407.646 528.528C407.646 527.494 407.235 526.502 406.504 525.771C405.773 525.04 404.781 524.629 403.747 524.629C402.712 524.629 401.721 525.04 400.989 525.771C400.258 526.502 399.847 527.494 399.847 528.528ZM462.238 341.356C462.238 342.39 462.649 343.382 463.38 344.113C464.111 344.845 465.103 345.255 466.137 345.255C467.172 345.255 468.163 344.845 468.895 344.113C469.626 343.382 470.037 342.39 470.037 341.356C470.037 340.322 469.626 339.33 468.895 338.599C468.163 337.867 467.172 337.457 466.137 337.457C465.103 337.457 464.111 337.867 463.38 338.599C462.649 339.33 462.238 340.322 462.238 341.356Z" fill="black"/>
<path d="M306.261 497.333C306.261 498.367 306.672 499.359 307.403 500.09C308.135 500.821 309.126 501.232 310.161 501.232C311.195 501.232 312.187 500.821 312.918 500.09C313.649 499.359 314.06 498.367 314.06 497.333C314.06 496.299 313.649 495.307 312.918 494.576C312.187 493.844 311.195 493.433 310.161 493.433C309.126 493.433 308.135 493.844 307.403 494.576C306.672 495.307 306.261 496.299 306.261 497.333ZM368.652 403.747C368.652 404.781 369.063 405.773 369.794 406.504C370.525 407.235 371.517 407.646 372.551 407.646C373.586 407.646 374.577 407.235 375.309 406.504C376.04 405.773 376.451 404.781 376.451 403.747C376.451 402.713 376.04 401.721 375.309 400.989C374.577 400.258 373.586 399.847 372.551 399.847C371.517 399.847 370.525 400.258 369.794 400.989C369.063 401.721 368.652 402.713 368.652 403.747Z" fill="black"/>
<path d="M587.02 310.161C587.02 311.195 587.43 312.187 588.162 312.918C588.893 313.649 589.885 314.06 590.919 314.06C591.953 314.06 592.945 313.649 593.676 312.918C594.408 312.187 594.818 311.195 594.818 310.161C594.818 309.126 594.408 308.135 593.676 307.403C592.945 306.672 591.953 306.261 590.919 306.261C589.885 306.261 588.893 306.672 588.162 307.403C587.43 308.135 587.02 309.126 587.02 310.161ZM618.215 247.77C618.215 248.804 618.626 249.796 619.357 250.527C620.088 251.258 621.08 251.669 622.114 251.669C623.149 251.669 624.14 251.258 624.872 250.527C625.603 249.796 626.014 248.804 626.014 247.77C626.014 246.736 625.603 245.744 624.872 245.013C624.14 244.281 623.149 243.87 622.114 243.87C621.08 243.87 620.088 244.281 619.357 245.013C618.626 245.744 618.215 246.736 618.215 247.77Z" fill="black"/>
<path d="M337.457 497.333C337.457 498.367 337.867 499.359 338.599 500.09C339.33 500.821 340.322 501.232 341.356 501.232C342.39 501.232 343.382 500.821 344.113 500.09C344.845 499.359 345.255 498.367 345.255 497.333C345.255 496.299 344.845 495.307 344.113 494.576C343.382 493.844 342.39 493.433 341.356 493.433C340.322 493.433 339.33 493.844 338.599 494.576C337.867 495.307 337.457 496.299 337.457 497.333ZM337.457 559.724C337.457 560.758 337.867 561.75 338.599 562.481C339.33 563.212 340.322 563.623 341.356 563.623C342.39 563.623 343.382 563.212 344.113 562.481C344.845 561.75 345.255 560.758 345.255 559.724C345.255 558.689 344.845 557.698 344.113 556.966C343.382 556.235 342.39 555.824 341.356 555.824C340.322 555.824 339.33 556.235 338.599 556.966C337.867 557.698 337.457 558.689 337.457 559.724Z" fill="black"/>
<path d="M212.675 559.724C212.675 560.758 213.086 561.75 213.817 562.481C214.548 563.212 215.54 563.623 216.574 563.623C217.609 563.623 218.6 563.212 219.332 562.481C220.063 561.75 220.474 560.758 220.474 559.724C220.474 558.689 220.063 557.698 219.332 556.966C218.6 556.235 217.609 555.824 216.574 555.824C215.54 555.824 214.548 556.235 213.817 556.966C213.086 557.698 212.675 558.689 212.675 559.724ZM119.089 466.138C119.089 467.172 119.5 468.164 120.231 468.895C120.962 469.626 121.954 470.037 122.988 470.037C124.022 470.037 125.014 469.626 125.746 468.895C126.477 468.164 126.888 467.172 126.888 466.138C126.888 465.103 126.477 464.111 125.746 463.38C125.014 462.649 124.022 462.238 122.988 462.238C121.954 462.238 120.962 462.649 120.231 463.38C119.5 464.111 119.089 465.103 119.089 466.138Z" fill="black"/>
<path d="M306.261 278.965C306.261 279.999 306.672 280.991 307.403 281.723C308.135 282.454 309.126 282.865 310.161 282.865C311.195 282.865 312.187 282.454 312.918 281.723C313.649 280.991 314.06 279.999 314.06 278.965C314.06 277.931 313.649 276.939 312.918 276.208C312.187 275.477 311.195 275.066 310.161 275.066C309.126 275.066 308.135 275.477 307.403 276.208C306.672 276.939 306.261 277.931 306.261 278.965ZM306.261 341.356C306.261 342.39 306.672 343.382 307.403 344.113C308.135 344.845 309.126 345.255 310.161 345.255C311.195 345.255 312.187 344.845 312.918 344.113C313.649 343.382 314.06 342.39 314.06 341.356C314.06 340.322 313.649 339.33 312.918 338.599C312.187 337.867 311.195 337.457 310.161 337.457C309.126 337.457 308.135 337.867 307.403 338.599C306.672 339.33 306.261 340.322 306.261 341.356Z" fill="black"/>
<path d="M119.089 622.114C119.089 623.149 119.5 624.14 120.231 624.872C120.962 625.603 121.954 626.014 122.988 626.014C124.023 626.014 125.014 625.603 125.746 624.872C126.477 624.14 126.888 623.149 126.888 622.114C126.888 621.08 126.477 620.088 125.746 619.357C125.014 618.626 124.023 618.215 122.988 618.215C121.954 618.215 120.962 618.626 120.231 619.357C119.5 620.088 119.089 621.08 119.089 622.114ZM56.6982 622.114C56.6982 623.149 57.1091 624.14 57.8404 624.872C58.5716 625.603 59.5635 626.014 60.5977 626.014C61.6319 626.014 62.6237 625.603 63.355 624.872C64.0863 624.14 64.4971 623.149 64.4971 622.114C64.4971 621.08 64.0863 620.088 63.355 619.357C62.6237 618.626 61.6319 618.215 60.5977 618.215C59.5635 618.215 58.5716 618.626 57.8404 619.357C57.1091 620.088 56.6982 621.08 56.6982 622.114Z" fill="black"/>
<path d="M462.238 434.942C462.238 435.976 462.649 436.968 463.38 437.699C464.111 438.431 465.103 438.842 466.138 438.842C467.172 438.842 468.164 438.431 468.895 437.699C469.626 436.968 470.037 435.976 470.037 434.942C470.037 433.908 469.626 432.916 468.895 432.185C468.164 431.454 467.172 431.043 466.138 431.043C465.103 431.043 464.111 431.454 463.38 432.185C462.649 432.916 462.238 433.908 462.238 434.942ZM431.043 497.333C431.043 498.367 431.454 499.359 432.185 500.09C432.916 500.821 433.908 501.232 434.942 501.232C435.976 501.232 436.968 500.821 437.699 500.09C438.431 499.359 438.842 498.367 438.842 497.333C438.842 496.299 438.431 495.307 437.699 494.576C436.968 493.844 435.976 493.433 434.942 493.433C433.908 493.433 432.916 493.844 432.185 494.576C431.454 495.307 431.043 496.299 431.043 497.333Z" fill="black"/>
<path d="M87.8936 590.919C87.8936 591.953 88.3044 592.945 89.0357 593.676C89.767 594.408 90.7588 594.818 91.793 594.818C92.8272 594.818 93.819 594.408 94.5503 593.676C95.2816 592.945 95.6924 591.953 95.6924 590.919C95.6924 589.885 95.2816 588.893 94.5503 588.162C93.819 587.43 92.8272 587.02 91.793 587.02C90.7588 587.02 89.767 587.43 89.0357 588.162C88.3044 588.893 87.8936 589.885 87.8936 590.919ZM150.284 590.919C150.284 591.953 150.695 592.945 151.426 593.676C152.158 594.408 153.15 594.818 154.184 594.818C155.218 594.818 156.21 594.408 156.941 593.676C157.672 592.945 158.083 591.953 158.083 590.919C158.083 589.885 157.672 588.893 156.941 588.162C156.21 587.43 155.218 587.02 154.184 587.02C153.15 587.02 152.158 587.43 151.426 588.162C150.695 588.893 150.284 589.885 150.284 590.919Z" fill="black"/>
</mask>
<g mask="url(#mask0_587_5990)">
<path d="M278.965 559.724L60.5977 341.356V60.5977" stroke="black" stroke-width="5.33"/>
<path d="M271.166 559.724C271.166 561.792 271.988 563.776 273.451 565.238C274.913 566.701 276.897 567.522 278.965 567.522C281.034 567.522 283.017 566.701 284.48 565.238C285.942 563.776 286.764 561.792 286.764 559.724C286.764 557.655 285.942 555.672 284.48 554.209C283.017 552.746 281.034 551.925 278.965 551.925C276.897 551.925 274.913 552.746 273.451 554.209C271.988 555.672 271.166 557.655 271.166 559.724ZM52.7988 60.5977C52.7988 62.6661 53.6205 64.6497 55.0831 66.1123C56.5456 67.5749 58.5293 68.3965 60.5977 68.3965C62.6661 68.3965 64.6497 67.5749 66.1123 66.1123C67.5749 64.6497 68.3965 62.6661 68.3965 60.5977C68.3965 58.5293 67.5749 56.5456 66.1123 55.0831C64.6497 53.6205 62.6661 52.7988 60.5977 52.7988C58.5293 52.7988 56.5456 53.6205 55.0831 55.0831C53.6205 56.5456 52.7988 58.5293 52.7988 60.5977Z" fill="black"/>
<path d="M528.528 278.965L622.114 372.551V434.942L434.942 622.114H185.379" stroke="black" stroke-width="5.33"/>
<path d="M520.729 278.965C520.729 281.034 521.551 283.017 523.014 284.48C524.476 285.942 526.46 286.764 528.528 286.764C530.597 286.764 532.58 285.942 534.043 284.48C535.505 283.017 536.327 281.034 536.327 278.965C536.327 276.897 535.505 274.913 534.043 273.451C532.58 271.988 530.597 271.166 528.528 271.166C526.46 271.166 524.476 271.988 523.014 273.451C521.551 274.913 520.729 276.897 520.729 278.965ZM177.58 622.114C177.58 624.183 178.402 626.166 179.865 627.629C181.327 629.092 183.311 629.913 185.379 629.913C187.448 629.913 189.431 629.092 190.894 627.629C192.356 626.166 193.178 624.183 193.178 622.114C193.178 620.046 192.356 618.062 190.894 616.6C189.431 615.137 187.448 614.316 185.379 614.316C183.311 614.316 181.327 615.137 179.865 616.6C178.402 618.062 177.58 620.046 177.58 622.114Z" fill="black"/>
<path d="M403.747 154.184V310.161L247.77 466.138H216.574L91.793 341.356V216.575" stroke="black" stroke-width="5.33"/>
<path d="M395.948 154.184C395.948 156.252 396.77 158.236 398.232 159.698C399.695 161.161 401.678 161.983 403.747 161.983C405.815 161.983 407.799 161.161 409.261 159.698C410.724 158.236 411.546 156.252 411.546 154.184C411.546 152.115 410.724 150.132 409.261 148.669C407.799 147.207 405.815 146.385 403.747 146.385C401.678 146.385 399.695 147.207 398.232 148.669C396.77 150.132 395.948 152.115 395.948 154.184ZM83.9941 216.575C83.9941 218.643 84.8158 220.627 86.2784 222.089C87.7409 223.552 89.7246 224.373 91.793 224.373C93.8614 224.373 95.845 223.552 97.3076 222.089C98.7702 220.627 99.5918 218.643 99.5918 216.575C99.5918 214.506 98.7702 212.522 97.3076 211.06C95.845 209.597 93.8614 208.776 91.793 208.776C89.7246 208.776 87.7409 209.597 86.2784 211.06C84.8158 212.522 83.9941 214.506 83.9941 216.575Z" fill="black"/>
<path d="M590.919 154.184H434.942L341.356 60.5977H91.793" stroke="#DFE257" stroke-width="5.33"/>
<path d="M583.12 154.184C583.12 156.252 583.942 158.236 585.404 159.698C586.867 161.161 588.851 161.983 590.919 161.983C592.987 161.983 594.971 161.161 596.434 159.698C597.896 158.236 598.718 156.252 598.718 154.184C598.718 152.115 597.896 150.132 596.434 148.669C594.971 147.207 592.987 146.385 590.919 146.385C588.851 146.385 586.867 147.207 585.404 148.669C583.942 150.132 583.12 152.115 583.12 154.184ZM83.9941 60.5977C83.9941 62.6661 84.8158 64.6497 86.2784 66.1123C87.7409 67.5749 89.7246 68.3965 91.793 68.3965C93.8614 68.3965 95.845 67.5749 97.3076 66.1123C98.7702 64.6497 99.5918 62.6661 99.5918 60.5977C99.5918 58.5293 98.7702 56.5456 97.3076 55.0831C95.845 53.6205 93.8614 52.7988 91.793 52.7988C89.7246 52.7988 87.7409 53.6205 86.2784 55.0831C84.8158 56.5456 83.9941 58.5293 83.9941 60.5977Z" fill="#DFE257"/>
<path d="M310.161 372.551L247.77 434.942H216.574L122.988 341.356V91.7931" stroke="black" stroke-width="5.33"/>
<path d="M302.362 372.551C302.362 374.62 303.183 376.603 304.646 378.066C306.108 379.529 308.092 380.35 310.161 380.35C312.229 380.35 314.213 379.529 315.675 378.066C317.138 376.603 317.959 374.62 317.959 372.551C317.959 370.483 317.138 368.499 315.675 367.037C314.213 365.574 312.229 364.753 310.161 364.753C308.092 364.753 306.108 365.574 304.646 367.037C303.183 368.499 302.362 370.483 302.362 372.551ZM115.189 91.793C115.189 93.8614 116.011 95.8451 117.474 97.3077C118.936 98.7702 120.92 99.5919 122.988 99.5919C125.057 99.5919 127.04 98.7702 128.503 97.3077C129.965 95.8451 130.787 93.8614 130.787 91.793C130.787 89.7247 129.965 87.741 128.503 86.2784C127.04 84.8159 125.057 83.9942 122.988 83.9942C120.92 83.9942 118.936 84.8159 117.474 86.2784C116.011 87.741 115.189 89.7247 115.189 91.793Z" fill="black"/>
<path d="M466.138 278.965H497.333L559.724 341.356V434.942L434.942 559.724V590.919" stroke="#DFE257" stroke-width="5.33"/>
<path d="M460.976 284.126C459.608 282.758 458.839 280.901 458.839 278.965C458.839 277.03 459.608 275.173 460.976 273.804C462.345 272.435 464.202 271.666 466.138 271.666C468.073 271.666 469.93 272.435 471.299 273.804C472.667 275.173 473.436 277.03 473.436 278.965C473.436 280.901 472.667 282.758 471.299 284.126C469.93 285.495 468.073 286.264 466.138 286.264C464.202 286.264 462.345 285.495 460.976 284.126ZM429.781 596.08C428.412 594.711 427.643 592.855 427.643 590.919C427.643 588.983 428.412 587.127 429.781 585.758C431.15 584.389 433.006 583.62 434.942 583.62C436.878 583.62 438.734 584.389 440.103 585.758C441.472 587.127 442.241 588.983 442.241 590.919C442.241 592.855 441.472 594.711 440.103 596.08C438.734 597.449 436.878 598.218 434.942 598.218C433.006 598.218 431.15 597.449 429.781 596.08Z" fill="#DFE257" stroke="#DFE257"/>
<path d="M216.574 216.575V310.161L278.965 372.551" stroke="black" stroke-width="5.33"/>
<path d="M208.776 216.575C208.776 218.643 209.597 220.627 211.06 222.089C212.522 223.552 214.506 224.373 216.574 224.373C218.643 224.373 220.627 223.552 222.089 222.089C223.552 220.627 224.373 218.643 224.373 216.575C224.373 214.506 223.552 212.522 222.089 211.06C220.627 209.597 218.643 208.776 216.574 208.776C214.506 208.776 212.522 209.597 211.06 211.06C209.597 212.522 208.776 214.506 208.776 216.575ZM271.166 372.551C271.166 374.62 271.988 376.603 273.451 378.066C274.913 379.529 276.897 380.35 278.965 380.35C281.034 380.35 283.017 379.529 284.48 378.066C285.942 376.603 286.764 374.62 286.764 372.551C286.764 370.483 285.942 368.499 284.48 367.037C283.017 365.574 281.034 364.753 278.965 364.753C276.897 364.753 274.913 365.574 273.451 367.037C271.988 368.499 271.166 370.483 271.166 372.551Z" fill="black"/>
<path d="M590.919 590.919L559.724 559.724H528.528L466.137 622.114" stroke="black" stroke-width="5.33"/>
<path d="M583.12 590.919C583.12 592.987 583.942 594.971 585.404 596.434C586.867 597.896 588.851 598.718 590.919 598.718C592.987 598.718 594.971 597.896 596.434 596.434C597.896 594.971 598.718 592.987 598.718 590.919C598.718 588.851 597.896 586.867 596.434 585.404C594.971 583.942 592.987 583.12 590.919 583.12C588.851 583.12 586.867 583.942 585.404 585.404C583.942 586.867 583.12 588.851 583.12 590.919ZM458.339 622.114C458.339 624.183 459.16 626.166 460.623 627.629C462.085 629.092 464.069 629.913 466.137 629.913C468.206 629.913 470.19 629.092 471.652 627.629C473.115 626.166 473.936 624.183 473.936 622.114C473.936 620.046 473.115 618.062 471.652 616.6C470.19 615.137 468.206 614.316 466.137 614.316C464.069 614.316 462.085 615.137 460.623 616.6C459.16 618.062 458.339 620.046 458.339 622.114Z" fill="black"/>
<path d="M60.5977 403.747H91.793L247.77 559.724V590.919" stroke="black" stroke-width="5.33"/>
<path d="M52.7988 403.747C52.7988 405.815 53.6205 407.799 55.0831 409.261C56.5456 410.724 58.5293 411.546 60.5977 411.546C62.6661 411.546 64.6497 410.724 66.1123 409.261C67.5749 407.799 68.3965 405.815 68.3965 403.747C68.3965 401.678 67.5749 399.695 66.1123 398.232C64.6497 396.77 62.6661 395.948 60.5977 395.948C58.5293 395.948 56.5456 396.77 55.0831 398.232C53.6205 399.695 52.7988 401.678 52.7988 403.747ZM239.971 590.919C239.971 592.987 240.793 594.971 242.255 596.434C243.718 597.896 245.702 598.718 247.77 598.718C249.838 598.718 251.822 597.896 253.285 596.434C254.747 594.971 255.569 592.987 255.569 590.919C255.569 588.851 254.747 586.867 253.285 585.404C251.822 583.942 249.838 583.12 247.77 583.12C245.702 583.12 243.718 583.942 242.255 585.404C240.793 586.867 239.971 588.851 239.971 590.919Z" fill="black"/>
<path d="M341.356 341.356L372.551 310.161V216.575" stroke="black" stroke-width="5.33"/>
<path d="M333.557 341.356C333.557 343.424 334.379 345.408 335.841 346.871C337.304 348.333 339.288 349.155 341.356 349.155C343.424 349.155 345.408 348.333 346.871 346.871C348.333 345.408 349.155 343.424 349.155 341.356C349.155 339.288 348.333 337.304 346.871 335.841C345.408 334.379 343.424 333.557 341.356 333.557C339.288 333.557 337.304 334.379 335.841 335.841C334.379 337.304 333.557 339.288 333.557 341.356ZM364.753 216.575C364.753 218.643 365.574 220.627 367.037 222.089C368.499 223.552 370.483 224.373 372.551 224.373C374.62 224.373 376.603 223.552 378.066 222.089C379.529 220.627 380.35 218.643 380.35 216.575C380.35 214.506 379.529 212.522 378.066 211.06C376.603 209.597 374.62 208.776 372.551 208.776C370.483 208.776 368.499 209.597 367.037 211.06C365.574 212.522 364.753 214.506 364.753 216.575Z" fill="black"/>
<path d="M310.16 434.942L434.942 310.161H497.333L528.528 341.356V434.942L372.551 590.919H278.965" stroke="black" stroke-width="5.33"/>
<path d="M302.362 434.942C302.362 437.011 303.184 438.994 304.646 440.457C306.109 441.919 308.092 442.741 310.161 442.741C312.229 442.741 314.213 441.919 315.675 440.457C317.138 438.994 317.96 437.011 317.96 434.942C317.96 432.874 317.138 430.89 315.675 429.428C314.213 427.965 312.229 427.143 310.161 427.143C308.092 427.143 306.109 427.965 304.646 429.428C303.184 430.89 302.362 432.874 302.362 434.942ZM271.167 590.919C271.167 592.987 271.988 594.971 273.451 596.434C274.913 597.896 276.897 598.718 278.965 598.718C281.034 598.718 283.017 597.896 284.48 596.434C285.943 594.971 286.764 592.987 286.764 590.919C286.764 588.851 285.943 586.867 284.48 585.404C283.017 583.942 281.034 583.12 278.965 583.12C276.897 583.12 274.913 583.942 273.451 585.404C271.988 586.867 271.167 588.851 271.167 590.919Z" fill="black"/>
<path d="M559.724 247.77H434.942" stroke="black" stroke-width="5.33"/>
<path d="M551.925 247.77C551.925 249.838 552.746 251.822 554.209 253.285C555.672 254.747 557.655 255.569 559.724 255.569C561.792 255.569 563.776 254.747 565.238 253.285C566.701 251.822 567.522 249.838 567.522 247.77C567.522 245.702 566.701 243.718 565.238 242.255C563.776 240.793 561.792 239.971 559.724 239.971C557.655 239.971 555.672 240.793 554.209 242.255C552.746 243.718 551.925 245.702 551.925 247.77ZM427.143 247.77C427.143 249.838 427.965 251.822 429.428 253.285C430.89 254.747 432.874 255.569 434.942 255.569C437.011 255.569 438.994 254.747 440.457 253.285C441.919 251.822 442.741 249.838 442.741 247.77C442.741 245.702 441.919 243.718 440.457 242.255C438.994 240.793 437.011 239.971 434.942 239.971C432.874 239.971 430.89 240.793 429.428 242.255C427.965 243.718 427.143 245.702 427.143 247.77Z" fill="black"/>
<path d="M247.77 403.747H216.574L154.184 341.356" stroke="black" stroke-width="5.33"/>
<path d="M239.971 403.747C239.971 405.815 240.793 407.799 242.255 409.261C243.718 410.724 245.702 411.546 247.77 411.546C249.838 411.546 251.822 410.724 253.285 409.261C254.747 407.799 255.569 405.815 255.569 403.747C255.569 401.678 254.747 399.695 253.285 398.232C251.822 396.77 249.838 395.948 247.77 395.948C245.702 395.948 243.718 396.77 242.255 398.232C240.793 399.695 239.971 401.678 239.971 403.747ZM146.385 341.356C146.385 343.424 147.207 345.408 148.669 346.871C150.132 348.333 152.115 349.155 154.184 349.155C156.252 349.155 158.236 348.333 159.698 346.871C161.161 345.408 161.983 343.424 161.983 341.356C161.983 339.288 161.161 337.304 159.698 335.841C158.236 334.379 156.252 333.557 154.184 333.557C152.115 333.557 150.132 334.379 148.669 335.841C147.207 337.304 146.385 339.288 146.385 341.356Z" fill="black"/>
<path d="M434.942 434.942L497.333 372.551V341.356" stroke="black" stroke-width="5.33"/>
<path d="M427.143 434.942C427.143 437.011 427.965 438.994 429.428 440.457C430.89 441.919 432.874 442.741 434.942 442.741C437.011 442.741 438.994 441.919 440.457 440.457C441.919 438.994 442.741 437.011 442.741 434.942C442.741 432.874 441.919 430.89 440.457 429.428C438.994 427.965 437.011 427.143 434.942 427.143C432.874 427.143 430.89 427.965 429.428 429.428C427.965 430.89 427.143 432.874 427.143 434.942ZM489.534 341.356C489.534 343.424 490.356 345.408 491.818 346.871C493.281 348.333 495.265 349.155 497.333 349.155C499.401 349.155 501.385 348.333 502.848 346.871C504.31 345.408 505.132 343.424 505.132 341.356C505.132 339.288 504.31 337.304 502.848 335.841C501.385 334.379 499.401 333.557 497.333 333.557C495.265 333.557 493.281 334.379 491.818 335.841C490.356 337.304 489.534 339.288 489.534 341.356Z" fill="black"/>
<path d="M559.724 60.5977L528.528 91.793H466.138L434.942 122.988" stroke="black" stroke-width="5.33"/>
<path d="M551.925 60.5977C551.925 62.6661 552.746 64.6497 554.209 66.1123C555.672 67.5749 557.655 68.3965 559.724 68.3965C561.792 68.3965 563.776 67.5749 565.238 66.1123C566.701 64.6497 567.522 62.6661 567.522 60.5977C567.522 58.5293 566.701 56.5456 565.238 55.0831C563.776 53.6205 561.792 52.7988 559.724 52.7988C557.655 52.7988 555.672 53.6205 554.209 55.0831C552.746 56.5456 551.925 58.5293 551.925 60.5977ZM427.143 122.988C427.143 125.057 427.965 127.04 429.428 128.503C430.89 129.966 432.874 130.787 434.942 130.787C437.011 130.787 438.994 129.966 440.457 128.503C441.919 127.04 442.741 125.057 442.741 122.988C442.741 120.92 441.919 118.936 440.457 117.474C438.994 116.011 437.011 115.19 434.942 115.19C432.874 115.19 430.89 116.011 429.428 117.474C427.965 118.936 427.143 120.92 427.143 122.988Z" fill="black"/>
<path d="M185.379 122.988H247.77L278.965 91.7931H341.356L372.551 122.988V154.184" stroke="black" stroke-width="5.33"/>
<path d="M177.58 122.988C177.58 125.057 178.402 127.04 179.865 128.503C181.327 129.966 183.311 130.787 185.379 130.787C187.448 130.787 189.431 129.966 190.894 128.503C192.356 127.04 193.178 125.057 193.178 122.988C193.178 120.92 192.356 118.936 190.894 117.474C189.431 116.011 187.448 115.19 185.379 115.19C183.311 115.19 181.327 116.011 179.865 117.474C178.402 118.936 177.58 120.92 177.58 122.988ZM364.753 154.184C364.753 156.252 365.574 158.236 367.037 159.698C368.499 161.161 370.483 161.983 372.551 161.983C374.62 161.983 376.603 161.161 378.066 159.698C379.529 158.236 380.35 156.252 380.35 154.184C380.35 152.115 379.529 150.132 378.066 148.669C376.603 147.207 374.62 146.385 372.551 146.385C370.483 146.385 368.499 147.207 367.037 148.669C365.574 150.132 364.753 152.115 364.753 154.184Z" fill="black"/>
<path d="M466.137 216.575H622.114" stroke="black" stroke-width="5.33"/>
<path d="M458.339 216.575C458.339 218.643 459.16 220.627 460.623 222.089C462.085 223.552 464.069 224.373 466.137 224.373C468.206 224.373 470.19 223.552 471.652 222.089C473.115 220.627 473.936 218.643 473.936 216.575C473.936 214.506 473.115 212.522 471.652 211.06C470.19 209.597 468.206 208.776 466.137 208.776C464.069 208.776 462.085 209.597 460.623 211.06C459.16 212.522 458.339 214.506 458.339 216.575ZM614.315 216.575C614.315 218.643 615.137 220.627 616.6 222.089C618.062 223.552 620.046 224.373 622.114 224.373C624.183 224.373 626.166 223.552 627.629 222.089C629.092 220.627 629.913 218.643 629.913 216.575C629.913 214.506 629.092 212.522 627.629 211.06C626.166 209.597 624.183 208.776 622.114 208.776C620.046 208.776 618.062 209.597 616.6 211.06C615.137 212.522 614.315 214.506 614.315 216.575Z" fill="black"/>
<path d="M185.379 91.7931L154.184 122.988V278.965L247.77 372.551" stroke="#DFE257" stroke-width="5.33"/>
<path d="M177.58 91.793C177.58 93.8614 178.402 95.8451 179.865 97.3077C181.327 98.7702 183.311 99.5919 185.379 99.5919C187.448 99.5919 189.431 98.7702 190.894 97.3077C192.356 95.8451 193.178 93.8614 193.178 91.793C193.178 89.7247 192.356 87.741 190.894 86.2784C189.431 84.8159 187.448 83.9942 185.379 83.9942C183.311 83.9942 181.327 84.8159 179.865 86.2784C178.402 87.741 177.58 89.7247 177.58 91.793ZM239.971 372.551C239.971 374.62 240.793 376.603 242.255 378.066C243.718 379.529 245.702 380.35 247.77 380.35C249.838 380.35 251.822 379.529 253.285 378.066C254.747 376.603 255.569 374.62 255.569 372.551C255.569 370.483 254.747 368.499 253.285 367.037C251.822 365.574 249.838 364.753 247.77 364.753C245.702 364.753 243.718 365.574 242.255 367.037C240.793 368.499 239.971 370.483 239.971 372.551Z" fill="#DFE257"/>
<path d="M622.114 185.379H434.942" stroke="black" stroke-width="5.33"/>
<path d="M614.316 185.379C614.316 187.448 615.137 189.431 616.6 190.894C618.062 192.356 620.046 193.178 622.114 193.178C624.183 193.178 626.166 192.356 627.629 190.894C629.092 189.431 629.913 187.448 629.913 185.379C629.913 183.311 629.092 181.327 627.629 179.865C626.166 178.402 624.183 177.58 622.114 177.58C620.046 177.58 618.062 178.402 616.6 179.865C615.137 181.327 614.316 183.311 614.316 185.379ZM427.143 185.379C427.143 187.448 427.965 189.431 429.428 190.894C430.89 192.356 432.874 193.178 434.942 193.178C437.011 193.178 438.994 192.356 440.457 190.894C441.919 189.431 442.741 187.448 442.741 185.379C442.741 183.311 441.919 181.327 440.457 179.865C438.994 178.402 437.011 177.58 434.942 177.58C432.874 177.58 430.89 178.402 429.428 179.865C427.965 181.327 427.143 183.311 427.143 185.379Z" fill="black"/>
<path d="M60.5977 590.919V434.942" stroke="black" stroke-width="5.33"/>
<path d="M52.7988 590.919C52.7988 592.987 53.6205 594.971 55.0831 596.434C56.5456 597.896 58.5293 598.718 60.5977 598.718C62.6661 598.718 64.6497 597.896 66.1123 596.434C67.5749 594.971 68.3965 592.987 68.3965 590.919C68.3965 588.851 67.5749 586.867 66.1123 585.404C64.6497 583.942 62.6661 583.12 60.5977 583.12C58.5293 583.12 56.5456 583.942 55.0831 585.404C53.6205 586.867 52.7988 588.851 52.7988 590.919ZM52.7988 434.942C52.7988 437.011 53.6205 438.994 55.0831 440.457C56.5456 441.919 58.5293 442.741 60.5977 442.741C62.6661 442.741 64.6497 441.919 66.1123 440.457C67.5749 438.994 68.3965 437.011 68.3965 434.942C68.3965 432.874 67.5749 430.89 66.1123 429.428C64.6497 427.965 62.6661 427.143 60.5977 427.143C58.5293 427.143 56.5456 427.965 55.0831 429.428C53.6205 430.89 52.7988 432.874 52.7988 434.942Z" fill="black"/>
<path d="M185.379 590.919L91.793 497.333V434.942" stroke="black" stroke-width="5.33"/>
<path d="M177.58 590.919C177.58 592.987 178.402 594.971 179.864 596.434C181.327 597.896 183.311 598.718 185.379 598.718C187.447 598.718 189.431 597.896 190.894 596.434C192.356 594.971 193.178 592.987 193.178 590.919C193.178 588.851 192.356 586.867 190.894 585.404C189.431 583.942 187.447 583.12 185.379 583.12C183.311 583.12 181.327 583.942 179.864 585.404C178.402 586.867 177.58 588.851 177.58 590.919ZM83.9941 434.942C83.9941 437.011 84.8158 438.994 86.2784 440.457C87.7409 441.919 89.7246 442.741 91.793 442.741C93.8614 442.741 95.845 441.919 97.3076 440.457C98.7702 438.994 99.5918 437.011 99.5918 434.942C99.5918 432.874 98.7702 430.89 97.3076 429.428C95.845 427.965 93.8614 427.143 91.793 427.143C89.7246 427.143 87.7409 427.965 86.2784 429.428C84.8158 430.89 83.9941 432.874 83.9941 434.942Z" fill="black"/>
<path d="M310.161 185.379L278.965 154.184H185.379" stroke="black" stroke-width="5.33"/>
<path d="M302.362 185.379C302.362 187.448 303.183 189.431 304.646 190.894C306.109 192.356 308.092 193.178 310.161 193.178C312.229 193.178 314.213 192.356 315.675 190.894C317.138 189.431 317.96 187.448 317.96 185.379C317.96 183.311 317.138 181.327 315.675 179.865C314.213 178.402 312.229 177.58 310.161 177.58C308.092 177.58 306.109 178.402 304.646 179.865C303.183 181.327 302.362 183.311 302.362 185.379ZM177.58 154.184C177.58 156.252 178.402 158.236 179.865 159.698C181.327 161.161 183.311 161.983 185.379 161.983C187.448 161.983 189.431 161.161 190.894 159.698C192.356 158.236 193.178 156.252 193.178 154.184C193.178 152.115 192.356 150.132 190.894 148.669C189.431 147.207 187.448 146.385 185.379 146.385C183.311 146.385 181.327 147.207 179.865 148.669C178.402 150.132 177.58 152.115 177.58 154.184Z" fill="black"/>
<path d="M403.747 91.793L434.942 60.5977H528.528" stroke="black" stroke-width="5.33"/>
<path d="M395.948 91.793C395.948 93.8614 396.77 95.8451 398.232 97.3077C399.695 98.7702 401.678 99.5919 403.747 99.5919C405.815 99.5919 407.799 98.7702 409.261 97.3077C410.724 95.8451 411.546 93.8614 411.546 91.793C411.546 89.7247 410.724 87.741 409.261 86.2784C407.799 84.8159 405.815 83.9942 403.747 83.9942C401.678 83.9942 399.695 84.8159 398.232 86.2784C396.77 87.741 395.948 89.7247 395.948 91.793ZM520.729 60.5977C520.729 62.6661 521.551 64.6497 523.014 66.1123C524.476 67.5749 526.46 68.3965 528.528 68.3965C530.597 68.3965 532.58 67.5749 534.043 66.1123C535.506 64.6497 536.327 62.6661 536.327 60.5977C536.327 58.5293 535.506 56.5456 534.043 55.0831C532.58 53.6205 530.597 52.7988 528.528 52.7988C526.46 52.7988 524.476 53.6205 523.014 55.0831C521.551 56.5456 520.729 58.5293 520.729 60.5977Z" fill="black"/>
<path d="M622.114 60.5977H590.919L528.528 122.988H466.137" stroke="black" stroke-width="5.33"/>
<path d="M614.315 60.5977C614.315 62.6661 615.137 64.6497 616.6 66.1123C618.062 67.5749 620.046 68.3965 622.114 68.3965C624.183 68.3965 626.166 67.5749 627.629 66.1123C629.092 64.6497 629.913 62.6661 629.913 60.5977C629.913 58.5293 629.092 56.5456 627.629 55.0831C626.166 53.6205 624.183 52.7988 622.114 52.7988C620.046 52.7988 618.062 53.6205 616.6 55.0831C615.137 56.5456 614.315 58.5293 614.315 60.5977ZM458.339 122.988C458.339 125.057 459.16 127.04 460.623 128.503C462.085 129.966 464.069 130.787 466.137 130.787C468.206 130.787 470.19 129.966 471.652 128.503C473.115 127.04 473.936 125.057 473.936 122.988C473.936 120.92 473.115 118.936 471.652 117.474C470.19 116.011 468.206 115.19 466.137 115.19C464.069 115.19 462.085 116.011 460.623 117.474C459.16 118.936 458.339 120.92 458.339 122.988Z" fill="black"/>
<path d="M91.793 91.7931V154.184" stroke="black" stroke-width="5.33"/>
<path d="M83.9941 91.793C83.9941 93.8614 84.8158 95.8451 86.2784 97.3077C87.7409 98.7702 89.7246 99.5919 91.793 99.5919C93.8614 99.5919 95.845 98.7702 97.3076 97.3077C98.7702 95.8451 99.5918 93.8614 99.5918 91.793C99.5918 89.7247 98.7702 87.741 97.3076 86.2784C95.845 84.8159 93.8614 83.9942 91.793 83.9942C89.7246 83.9942 87.7409 84.8159 86.2784 86.2784C84.8158 87.741 83.9941 89.7247 83.9941 91.793ZM83.9941 154.184C83.9941 156.252 84.8158 158.236 86.2784 159.698C87.7409 161.161 89.7246 161.983 91.793 161.983C93.8614 161.983 95.845 161.161 97.3076 159.698C98.7702 158.236 99.5918 156.252 99.5918 154.184C99.5918 152.115 98.7702 150.132 97.3076 148.669C95.845 147.207 93.8614 146.385 91.793 146.385C89.7246 146.385 87.7409 147.207 86.2784 148.669C84.8158 150.132 83.9941 152.115 83.9941 154.184Z" fill="black"/>
<path d="M341.356 216.575H247.77L216.575 185.379H185.379" stroke="black" stroke-width="5.33"/>
<path d="M333.557 216.575C333.557 218.643 334.379 220.627 335.841 222.089C337.304 223.552 339.288 224.373 341.356 224.373C343.424 224.373 345.408 223.552 346.871 222.089C348.333 220.627 349.155 218.643 349.155 216.575C349.155 214.506 348.333 212.522 346.871 211.06C345.408 209.597 343.424 208.776 341.356 208.776C339.288 208.776 337.304 209.597 335.841 211.06C334.379 212.522 333.557 214.506 333.557 216.575ZM177.58 185.379C177.58 187.448 178.402 189.431 179.865 190.894C181.327 192.356 183.311 193.178 185.379 193.178C187.448 193.178 189.431 192.356 190.894 190.894C192.356 189.431 193.178 187.448 193.178 185.379C193.178 183.311 192.356 181.327 190.894 179.865C189.431 178.402 187.448 177.58 185.379 177.58C183.311 177.58 181.327 178.402 179.865 179.865C178.402 181.327 177.58 183.311 177.58 185.379Z" fill="black"/>
<path d="M403.747 528.528V372.551L434.942 341.356H466.137" stroke="black" stroke-width="5.33"/>
<path d="M395.948 528.528C395.948 530.597 396.77 532.58 398.232 534.043C399.695 535.505 401.678 536.327 403.747 536.327C405.815 536.327 407.799 535.505 409.261 534.043C410.724 532.58 411.546 530.597 411.546 528.528C411.546 526.46 410.724 524.476 409.261 523.014C407.799 521.551 405.815 520.729 403.747 520.729C401.678 520.729 399.695 521.551 398.232 523.014C396.77 524.476 395.948 526.46 395.948 528.528ZM458.339 341.356C458.339 343.424 459.16 345.408 460.623 346.871C462.086 348.333 464.069 349.155 466.138 349.155C468.206 349.155 470.19 348.333 471.652 346.871C473.115 345.408 473.936 343.424 473.936 341.356C473.936 339.288 473.115 337.304 471.652 335.841C470.19 334.379 468.206 333.557 466.138 333.557C464.069 333.557 462.086 334.379 460.623 335.841C459.16 337.304 458.339 339.288 458.339 341.356Z" fill="black"/>
<path d="M310.161 497.333L372.551 434.942V403.747" stroke="black" stroke-width="5.33"/>
<path d="M302.362 497.333C302.362 499.401 303.183 501.385 304.646 502.848C306.109 504.31 308.092 505.132 310.161 505.132C312.229 505.132 314.213 504.31 315.675 502.848C317.138 501.385 317.96 499.401 317.96 497.333C317.96 495.265 317.138 493.281 315.675 491.818C314.213 490.356 312.229 489.534 310.161 489.534C308.092 489.534 306.109 490.356 304.646 491.818C303.183 493.281 302.362 495.265 302.362 497.333ZM364.753 403.747C364.753 405.815 365.574 407.799 367.037 409.261C368.499 410.724 370.483 411.546 372.551 411.546C374.62 411.546 376.603 410.724 378.066 409.261C379.529 407.799 380.35 405.815 380.35 403.747C380.35 401.678 379.529 399.695 378.066 398.232C376.603 396.77 374.62 395.948 372.551 395.948C370.483 395.948 368.499 396.77 367.037 398.232C365.574 399.695 364.753 401.678 364.753 403.747Z" fill="black"/>
<path d="M590.919 310.161V278.965L622.114 247.77" stroke="black" stroke-width="5.33"/>
<path d="M583.12 310.161C583.12 312.229 583.942 314.213 585.404 315.675C586.867 317.138 588.851 317.959 590.919 317.959C592.987 317.959 594.971 317.138 596.434 315.675C597.896 314.213 598.718 312.229 598.718 310.161C598.718 308.092 597.896 306.109 596.434 304.646C594.971 303.183 592.987 302.362 590.919 302.362C588.851 302.362 586.867 303.183 585.404 304.646C583.942 306.109 583.12 308.092 583.12 310.161ZM614.315 247.77C614.315 249.838 615.137 251.822 616.6 253.285C618.062 254.747 620.046 255.569 622.114 255.569C624.183 255.569 626.166 254.747 627.629 253.285C629.092 251.822 629.913 249.838 629.913 247.77C629.913 245.702 629.092 243.718 627.629 242.255C626.166 240.793 624.183 239.971 622.114 239.971C620.046 239.971 618.062 240.793 616.6 242.255C615.137 243.718 614.315 245.702 614.315 247.77Z" fill="black"/>
<path d="M341.356 497.333V559.724" stroke="black" stroke-width="5.33"/>
<path d="M333.557 497.333C333.557 499.401 334.379 501.385 335.841 502.847C337.304 504.31 339.288 505.132 341.356 505.132C343.424 505.132 345.408 504.31 346.871 502.847C348.333 501.385 349.155 499.401 349.155 497.333C349.155 495.264 348.333 493.281 346.871 491.818C345.408 490.356 343.424 489.534 341.356 489.534C339.288 489.534 337.304 490.356 335.841 491.818C334.379 493.281 333.557 495.264 333.557 497.333ZM333.557 559.724C333.557 561.792 334.379 563.776 335.841 565.238C337.304 566.701 339.288 567.522 341.356 567.522C343.424 567.522 345.408 566.701 346.871 565.238C348.333 563.776 349.155 561.792 349.155 559.724C349.155 557.655 348.333 555.672 346.871 554.209C345.408 552.746 343.424 551.925 341.356 551.925C339.288 551.925 337.304 552.746 335.841 554.209C334.379 555.672 333.557 557.655 333.557 559.724Z" fill="black"/>
<path d="M216.574 559.724H185.379L154.184 528.528V497.333L122.988 466.138" stroke="#DFE257" stroke-width="5.33"/>
<path d="M208.776 559.724C208.776 561.792 209.597 563.776 211.06 565.238C212.522 566.701 214.506 567.522 216.574 567.522C218.643 567.522 220.626 566.701 222.089 565.238C223.552 563.776 224.373 561.792 224.373 559.724C224.373 557.655 223.552 555.672 222.089 554.209C220.626 552.746 218.643 551.925 216.574 551.925C214.506 551.925 212.522 552.746 211.06 554.209C209.597 555.672 208.776 557.655 208.776 559.724ZM115.189 466.137C115.189 468.206 116.011 470.19 117.474 471.652C118.936 473.115 120.92 473.936 122.988 473.936C125.057 473.936 127.04 473.115 128.503 471.652C129.965 470.19 130.787 468.206 130.787 466.137C130.787 464.069 129.965 462.085 128.503 460.623C127.04 459.16 125.057 458.339 122.988 458.339C120.92 458.339 118.936 459.16 117.474 460.623C116.011 462.085 115.189 464.069 115.189 466.137Z" fill="#DFE257"/>
<path d="M310.161 278.965V341.356" stroke="black" stroke-width="5.33"/>
<path d="M302.362 278.965C302.362 281.034 303.183 283.017 304.646 284.48C306.109 285.942 308.092 286.764 310.161 286.764C312.229 286.764 314.213 285.942 315.675 284.48C317.138 283.017 317.96 281.034 317.96 278.965C317.96 276.897 317.138 274.913 315.675 273.451C314.213 271.988 312.229 271.166 310.161 271.166C308.092 271.166 306.109 271.988 304.646 273.451C303.183 274.913 302.362 276.897 302.362 278.965ZM302.362 341.356C302.362 343.424 303.183 345.408 304.646 346.871C306.109 348.333 308.092 349.155 310.161 349.155C312.229 349.155 314.213 348.333 315.675 346.871C317.138 345.408 317.96 343.424 317.96 341.356C317.96 339.288 317.138 337.304 315.675 335.841C314.213 334.379 312.229 333.557 310.161 333.557C308.092 333.557 306.109 334.379 304.646 335.841C303.183 337.304 302.362 339.288 302.362 341.356Z" fill="black"/>
<path d="M122.988 622.114H60.5977" stroke="black" stroke-width="5.33"/>
<path d="M115.19 622.114C115.19 624.183 116.011 626.166 117.474 627.629C118.936 629.092 120.92 629.913 122.988 629.913C125.057 629.913 127.04 629.092 128.503 627.629C129.966 626.166 130.787 624.183 130.787 622.114C130.787 620.046 129.966 618.062 128.503 616.6C127.04 615.137 125.057 614.316 122.988 614.316C120.92 614.316 118.936 615.137 117.474 616.6C116.011 618.062 115.19 620.046 115.19 622.114ZM52.7988 622.114C52.7988 624.183 53.6205 626.166 55.0831 627.629C56.5456 629.092 58.5293 629.913 60.5977 629.913C62.6661 629.913 64.6497 629.092 66.1123 627.629C67.5749 626.166 68.3965 624.183 68.3965 622.114C68.3965 620.046 67.5749 618.062 66.1123 616.6C64.6497 615.137 62.6661 614.316 60.5977 614.316C58.5293 614.316 56.5456 615.137 55.0831 616.6C53.6205 618.062 52.7988 620.046 52.7988 622.114Z" fill="black"/>
<path d="M466.138 434.942L434.942 466.138V497.333" stroke="#DFE257" stroke-width="5.33"/>
<path d="M458.339 434.942C458.339 437.011 459.16 438.994 460.623 440.457C462.085 441.919 464.069 442.741 466.138 442.741C468.206 442.741 470.19 441.919 471.652 440.457C473.115 438.994 473.936 437.011 473.936 434.942C473.936 432.874 473.115 430.89 471.652 429.428C470.19 427.965 468.206 427.143 466.138 427.143C464.069 427.143 462.085 427.965 460.623 429.428C459.16 430.89 458.339 432.874 458.339 434.942ZM427.143 497.333C427.143 499.401 427.965 501.385 429.428 502.848C430.89 504.31 432.874 505.132 434.942 505.132C437.011 505.132 438.994 504.31 440.457 502.848C441.919 501.385 442.741 499.401 442.741 497.333C442.741 495.265 441.919 493.281 440.457 491.818C438.994 490.356 437.011 489.534 434.942 489.534C432.874 489.534 430.89 490.356 429.428 491.818C427.965 493.281 427.143 495.265 427.143 497.333Z" fill="#E0E357"/>
<path d="M91.793 590.919H154.184" stroke="black" stroke-width="5.33"/>
<path d="M83.9941 590.919C83.9941 592.987 84.8158 594.971 86.2784 596.434C87.7409 597.896 89.7246 598.718 91.793 598.718C93.8614 598.718 95.845 597.896 97.3076 596.434C98.7702 594.971 99.5918 592.987 99.5918 590.919C99.5918 588.851 98.7702 586.867 97.3076 585.404C95.845 583.942 93.8614 583.12 91.793 583.12C89.7246 583.12 87.7409 583.942 86.2784 585.404C84.8158 586.867 83.9941 588.851 83.9941 590.919ZM146.385 590.919C146.385 592.987 147.207 594.971 148.669 596.434C150.132 597.896 152.115 598.718 154.184 598.718C156.252 598.718 158.236 597.896 159.698 596.434C161.161 594.971 161.983 592.987 161.983 590.919C161.983 588.851 161.161 586.867 159.698 585.404C158.236 583.942 156.252 583.12 154.184 583.12C152.115 583.12 150.132 583.942 148.669 585.404C147.207 586.867 146.385 588.851 146.385 590.919Z" fill="black"/>
</g>
<path d="M0 652L-2.84998e-05 0L260 -1.1365e-05L260 652L0 652Z" fill="url(#paint0_linear_587_5990)"/>
<path d="M0 0H652V260H0V0Z" fill="url(#paint1_linear_587_5990)"/>
</g>
<defs>
<linearGradient id="paint0_linear_587_5990" x1="-1.42499e-05" y1="326" x2="260" y2="326" gradientUnits="userSpaceOnUse">
<stop stop-color="#10121E"/>
<stop offset="1" stop-color="#141622" stop-opacity="0"/>
</linearGradient>
<linearGradient id="paint1_linear_587_5990" x1="326" y1="0" x2="326" y2="260" gradientUnits="userSpaceOnUse">
<stop stop-color="#10121E"/>
<stop offset="1" stop-color="#141622" stop-opacity="0"/>
</linearGradient>
<clipPath id="clip0_587_5990">
<rect width="653" height="653" fill="white"/>
</clipPath>
</defs>
</svg>
