<svg width="24" height="24" viewBox="0 0 24 24" fill="none" xmlns="http://www.w3.org/2000/svg">
<g clip-path="url(#clip0_465_1192)">
<path d="M16.832 4H10.11C9.13355 4 8.33914 4.79441 8.33914 5.77083V5.98817H7.16793C6.19151 5.98817 5.39709 6.78258 5.39709 7.759V18.2292C5.39709 19.2057 6.19151 20.0001 7.16793 20.0001H13.8899C14.8663 20.0001 15.6607 19.2057 15.6607 18.2292V18.0119H16.8319C17.8083 18.0119 18.6027 17.2175 18.6027 16.2411V5.77083C18.6028 4.79441 17.8084 4 16.832 4ZM14.5185 18.2292C14.5185 18.5758 14.2365 18.8578 13.89 18.8578H7.16793C6.82136 18.8578 6.53937 18.5758 6.53937 18.2292V7.75892C6.53937 7.41236 6.82136 7.13037 7.16793 7.13037H13.8899C14.2365 7.13037 14.5184 7.41236 14.5184 7.75892V18.2292H14.5185ZM17.4605 16.2411C17.4605 16.5876 17.1785 16.8696 16.832 16.8696H15.6607V7.75892C15.6607 6.78251 14.8663 5.98809 13.89 5.98809H9.48141V5.77075C9.48141 5.42419 9.7634 5.1422 10.11 5.1422H16.832C17.1785 5.1422 17.4605 5.42419 17.4605 5.77075V16.2411Z" fill="#6F6AF8"/>
</g>
<defs>
<clipPath id="clip0_465_1192">
<rect width="16" height="16" fill="white" transform="translate(4 4)"/>
</clipPath>
</defs>
</svg>
