<svg width="72" height="26" viewBox="0 0 72 26" fill="none" xmlns="http://www.w3.org/2000/svg">
<path fill-rule="evenodd" clip-rule="evenodd" d="M18.027 12.8549L16.7589 18.9012C16.2306 19.1577 15.683 19.4141 15.1162 19.6706C14.5686 19.9029 13.9778 20.1158 13.3437 20.3093C12.7097 20.4787 12.0132 20.6166 11.2543 20.7231C10.5194 20.8295 9.70759 20.8828 8.81897 20.8828C5.9946 20.8828 3.81387 20.244 2.27679 18.9665C0.758932 17.6842 0 15.5502 0 12.5645C0 10.837 0.264185 9.21835 0.792555 7.70858C1.31612 6.16978 2.09427 4.83663 3.12699 3.70915C4.16451 2.55746 5.44221 1.65015 6.96007 0.987208C8.47793 0.324265 10.2168 -0.0047864 12.1765 5.25979e-05C13.1036 5.25979e-05 13.9466 0.0629589 14.7055 0.188773C15.4836 0.314587 16.1777 0.483952 16.7877 0.696868C17.4218 0.890428 17.9814 1.10576 18.4665 1.34288C18.9709 1.57515 19.4248 1.79774 19.8283 2.01066L18.6899 7.96263H12.9979C13.0171 7.74971 13.0387 7.47147 13.0627 7.1279C13.1012 6.78917 13.1324 6.44802 13.1564 6.10445C13.1756 5.74153 13.1972 5.3907 13.2213 5.05197C13.2405 4.7084 13.2501 4.42048 13.2501 4.18821C13.2501 4.01884 13.2405 3.82528 13.2213 3.60753C13.1972 3.37525 13.1444 3.15266 13.0627 2.93975C12.9763 2.72683 12.8394 2.55504 12.6521 2.42439C12.4791 2.27922 12.2462 2.20664 11.9532 2.20664C11.4056 2.20664 10.8988 2.44133 10.4329 2.91071C9.99099 3.3559 9.59231 3.96319 9.23686 4.73259C8.87661 5.4778 8.55959 6.32946 8.2858 7.28759C8.01201 8.25055 7.77904 9.23286 7.58691 10.2345C7.41879 11.212 7.2819 12.1822 7.17622 13.1452C7.09457 14.1033 7.05374 14.9453 7.05374 15.6712C7.05374 15.8841 7.06334 16.1502 7.08256 16.4696C7.10177 16.789 7.16421 17.0987 7.26989 17.3987C7.37556 17.6987 7.53407 17.9552 7.74542 18.1681C7.98079 18.381 8.2882 18.4875 8.66767 18.4875C9.32092 18.4875 9.95257 18.081 10.5626 17.268C11.1726 16.4357 11.7106 14.9647 12.1765 12.8549H18.027ZM29.1876 13.9146H27.3864L25.9598 20.6287H19.1294L23.402 0.319426H30.7079C31.9087 0.319426 33.0039 0.382334 33.9934 0.508148C34.9829 0.633962 35.8379 0.890428 36.5584 1.27755C37.2741 1.65983 37.8313 2.2139 38.23 2.93975C38.6334 3.6414 38.8352 4.58984 38.8352 5.78508C38.8352 6.89321 38.6551 7.94811 38.2948 8.94978C37.9586 9.9321 37.399 10.7959 36.616 11.5411C35.8571 12.2669 34.8676 12.8428 33.6475 13.2686C32.4227 13.6993 30.9361 13.9146 29.1876 13.9146ZM27.8259 11.8604H29.2813C29.9153 11.8604 30.4437 11.5943 30.8664 11.062C31.3083 10.5297 31.6662 9.87887 31.94 9.10947C32.233 8.34491 32.4443 7.54647 32.574 6.71417C32.6989 5.88186 32.7613 5.15601 32.7613 4.53662C32.7613 3.96077 32.6653 3.48171 32.4731 3.09943C32.2858 2.69296 31.8751 2.48972 31.2411 2.48972H29.8217L27.8259 11.8604ZM39.6205 10.9023L40.2185 8.05699C41.2945 7.5247 42.3921 7.14 43.5113 6.90289C44.6497 6.64642 45.9129 6.51819 47.3011 6.51819C48.6509 6.51819 49.7676 6.62464 50.6515 6.83756C51.5401 7.05048 52.2462 7.36017 52.7697 7.76665C53.2981 8.17312 53.668 8.65219 53.8793 9.20383C54.0907 9.76032 54.1963 10.3894 54.1963 11.091C54.1963 11.4975 54.1651 11.9354 54.1027 12.4048C54.0594 12.8742 54.0066 13.2686 53.9442 13.588L52.4599 20.6287H47.366L46.7968 18.5818H46.6094C45.9322 19.327 45.142 19.9029 44.239 20.3093C43.3503 20.6916 42.4641 20.8828 41.5803 20.8828C41.0759 20.8828 40.5812 20.8078 40.0961 20.6577C39.6109 20.5077 39.1786 20.2851 38.7992 19.99C38.4197 19.6657 38.1123 19.2714 37.8769 18.8068C37.6463 18.3132 37.5311 17.7253 37.5311 17.043C37.5311 15.9349 37.8265 15.0614 38.4173 14.4227C39.0273 13.7597 39.8175 13.2686 40.7877 12.9492C41.7772 12.6105 42.8844 12.3976 44.1093 12.3105C45.3533 12.2234 46.5974 12.1798 47.8415 12.1798C47.8847 11.9669 47.9375 11.6693 48 11.287C48.0624 10.8805 48.0937 10.5273 48.0937 10.2273C48.0937 9.845 47.988 9.49417 47.7766 9.1748C47.5893 8.83607 47.1786 8.6667 46.5446 8.6667C45.8049 8.6667 45.2573 8.88929 44.9018 9.33448C44.5608 9.76031 44.3398 10.2829 44.239 10.9023H39.6205ZM46.9841 16.1502L47.4884 13.6823H46.9192C46.3092 13.6823 45.7832 13.7694 45.3413 13.9436C44.9186 14.0936 44.5704 14.2945 44.2966 14.5461C44.042 14.8026 43.8523 15.0905 43.7274 15.4098C43.6025 15.7341 43.5401 16.0559 43.5401 16.3752C43.5401 16.8833 43.665 17.2656 43.9147 17.5221C44.1885 17.7785 44.5055 17.9068 44.8658 17.9068C45.3077 17.9068 45.74 17.7471 46.1627 17.4277C46.6046 17.1083 46.8784 16.6825 46.9841 16.1502ZM56.0264 6.87385H62.6983L63.6494 16.2736L68.6424 6.87385H72L64.3771 20.6287C63.6181 21.9691 62.8496 23.0022 62.0714 23.7281C61.2885 24.4539 60.4335 24.9886 59.5065 25.3322C58.5986 25.6709 57.5875 25.8718 56.4731 25.9347C55.378 25.9782 54.1219 26 52.7049 26L53.1804 23.7934C53.8769 23.7934 54.5206 23.7837 55.1114 23.7644C55.7214 23.7402 56.2065 23.6749 56.5668 23.5684C57.0519 23.4426 57.4002 23.22 57.6115 22.9006C57.8229 22.557 57.9285 22.0659 57.9285 21.4271C57.9285 21.0013 57.8853 20.5102 57.7989 19.9537C57.7364 19.402 57.662 18.8165 57.5755 18.1971L56.0264 6.87385Z" fill="white"/>
</svg>
