<svg width="40" height="40" viewBox="0 0 40 40" fill="none" xmlns="http://www.w3.org/2000/svg">
<path d="M34.6518 6.38631C34.4878 6.21054 34.3237 6.03086 34.1479 5.85899C33.9761 5.68712 33.7964 5.52306 33.6206 5.3551L33.1167 5.85899L32.5894 6.38631L30.9176 8.05812L30.8629 8.1128L29.8864 9.08933L28.195 10.7807L27.1638 11.8119C27.3474 11.972 27.531 12.1283 27.7029 12.3001C27.8747 12.472 28.0349 12.6595 28.195 12.8392C29.9372 14.8235 30.8981 17.3351 30.8981 19.999C30.8981 22.9091 29.7653 25.6433 27.7068 27.7019C25.6483 29.7604 22.9101 30.8931 20.0001 30.8931C17.3361 30.8931 14.8206 29.9322 12.8363 28.194L12.555 28.4753L11.8051 29.2252C14.0667 31.2408 16.9455 32.3501 20.0001 32.3501C23.3007 32.3501 26.4021 31.065 28.738 28.7331C31.0699 26.4011 32.3589 23.2997 32.3589 20.0029C32.3589 16.9484 31.2457 14.0735 29.2302 11.8119L30.9215 10.1205C33.3823 12.8314 34.7338 16.3117 34.7338 20.0029C34.7338 23.9364 33.2027 27.6315 30.4215 30.4127C27.6326 33.1899 23.9335 34.7211 20.0001 34.7211C16.3088 34.7211 12.8285 33.3735 10.1137 30.9127L9.08253 31.9439C12.0707 34.682 15.9221 36.1781 20.0001 36.1781C24.3241 36.1781 28.3903 34.4946 31.4449 31.44C34.4995 28.3854 36.183 24.3231 36.183 19.999C36.183 15.9211 34.6831 12.0736 31.9449 9.08542L33.6167 7.41361C40.3391 14.675 40.175 26.0496 33.1128 33.1079C29.609 36.6117 24.9491 38.5374 19.9922 38.5374C15.2815 38.5374 10.8403 36.7913 7.40291 33.6079L6.8834 34.1391L6.37952 34.643C10.0903 38.0999 14.8987 39.9982 20.0001 39.9982C25.3436 39.9982 30.3707 37.9163 34.1518 34.1391C41.7804 26.5144 41.9445 14.218 34.6518 6.38631Z" fill="url(#paint0_linear_465_1180)"/>
<path d="M30.8629 8.11295L30.9175 8.05827C27.9294 5.3201 24.078 3.82016 20 3.82016C15.676 3.82016 11.6097 5.50368 8.55516 8.55825C5.49669 11.6167 3.81316 15.6791 3.81316 19.9992C3.81316 24.0772 5.3131 27.9247 8.05127 30.9128L6.37947 32.5846C-0.342918 25.3193 -0.178863 13.9447 6.88335 6.89035C10.3871 3.38658 15.0471 1.46088 20.0039 1.46088C24.7147 1.46088 29.1559 3.2069 32.5933 6.39037L33.1206 5.86304L33.6245 5.35916C29.9098 1.89836 25.1014 0 20 0C14.6565 0 9.62933 2.08195 5.84824 5.85914C-1.78036 13.4838 -1.94442 25.7802 5.34826 33.6119C5.51231 33.7877 5.67637 33.9674 5.85214 34.1392C6.02401 34.3111 6.20369 34.4752 6.37947 34.6431L6.88335 34.1392L7.41067 33.6119L9.08248 31.9401L10.1137 30.9089L11.805 29.2176L12.555 28.4676L12.8362 28.1864C12.6526 28.0262 12.4691 27.87 12.2972 27.6981C12.1253 27.5262 11.9652 27.3387 11.805 27.1591C10.0629 25.1748 9.10201 22.6631 9.10201 19.9992C9.10201 17.0892 10.2348 14.3549 12.2933 12.2964C14.3518 10.2379 17.09 9.1051 20 9.1051C22.6679 9.1051 25.1795 10.066 27.1638 11.8042L28.195 10.773C25.9334 8.75746 23.0546 7.64422 20 7.64422C16.6994 7.64422 13.5979 8.92933 11.2621 11.2613C8.92624 13.5932 7.64504 16.6985 7.64504 19.9992C7.64504 23.0538 8.75828 25.9286 10.7738 28.1903L9.08248 29.8816C6.62164 27.1708 5.27014 23.6904 5.27014 20.0031C5.27014 16.0697 6.80132 12.3745 9.58637 9.59336C12.3714 6.81223 16.0666 5.27713 20 5.27713C23.6913 5.27713 27.1716 6.62473 29.8863 9.08557L30.8629 8.11295Z" fill="url(#paint1_linear_465_1180)"/>
<defs>
<linearGradient id="paint0_linear_465_1180" x1="11.3021" y1="42.3297" x2="41.9098" y2="11.7221" gradientUnits="userSpaceOnUse">
<stop stop-color="#5D70D6"/>
<stop offset="0.192" stop-color="#5DB3E4"/>
<stop offset="0.49" stop-color="#699DD4"/>
<stop offset="0.857" stop-color="#7D79BA"/>
<stop offset="1" stop-color="#7755A7"/>
</linearGradient>
<linearGradient id="paint1_linear_465_1180" x1="-2.32971" y1="28.6964" x2="27.5339" y2="-1.16722" gradientUnits="userSpaceOnUse">
<stop stop-color="#CB9037"/>
<stop offset="0.269" stop-color="#A9CB38"/>
<stop offset="0.424" stop-color="#A0C93B"/>
<stop offset="0.55" stop-color="#92C741"/>
<stop offset="0.66" stop-color="#7EC449"/>
<stop offset="0.76" stop-color="#65C054"/>
<stop offset="0.852" stop-color="#45BB61"/>
<stop offset="0.938" stop-color="#20B570"/>
<stop offset="1" stop-color="#00B07D"/>
</linearGradient>
</defs>
</svg>
